<?xml version="1.0" encoding="UTF-8" standalone="no"?><svg xmlns="http://www.w3.org/2000/svg" xmlns:xlink="http://www.w3.org/1999/xlink" contentScriptType="application/ecmascript" contentStyleType="text/css" height="1137px" preserveAspectRatio="none" style="width:3273px;height:1137px;" version="1.1" viewBox="0 0 3273 1137" width="3273px" zoomAndPan="magnify"><defs><filter height="300%" id="f1rhmu15jinp7t" width="300%" x="-1" y="-1"><feGaussianBlur result="blurOut" stdDeviation="2.0"/><feColorMatrix in="blurOut" result="blurOut2" type="matrix" values="0 0 0 0 0 0 0 0 0 0 0 0 0 0 0 0 0 0 .4 0"/><feOffset dx="4.0" dy="4.0" in="blurOut2" result="blurOut3"/><feBlend in="SourceGraphic" in2="blurOut3" mode="normal"/></filter></defs><g><!--cluster lib--><polygon fill="#FFFFFF" filter="url(#f1rhmu15jinp7t)" points="22,24,45,24,52,47.6094,2604,47.6094,2604,1125,22,1125,22,24" style="stroke: #000000; stroke-width: 1.5;"/><line style="stroke: #000000; stroke-width: 1.5;" x1="22" x2="52" y1="47.6094" y2="47.6094"/><text fill="#000000" font-family="sans-serif" font-size="14" font-weight="bold" lengthAdjust="spacingAndGlyphs" textLength="17" x="26" y="40.5332">lib</text><!--cluster lib.benchmarks--><polygon fill="#FFFFFF" filter="url(#f1rhmu15jinp7t)" points="1182,68,1274,68,1281,91.6094,2115,91.6094,2115,553,1182,553,1182,68" style="stroke: #000000; stroke-width: 1.5;"/><line style="stroke: #000000; stroke-width: 1.5;" x1="1182" x2="1281" y1="91.6094" y2="91.6094"/><text fill="#000000" font-family="sans-serif" font-size="14" font-weight="bold" lengthAdjust="spacingAndGlyphs" textLength="86" x="1186" y="84.5332">benchmarks</text><!--cluster lib.benchmarks.common_dart--><polygon fill="#FFFFFF" filter="url(#f1rhmu15jinp7t)" points="1206,112,1307,112,1314,135.6094,2091,135.6094,2091,337,1206,337,1206,112" style="stroke: #000000; stroke-width: 1.5;"/><line style="stroke: #000000; stroke-width: 1.5;" x1="1206" x2="1314" y1="135.6094" y2="135.6094"/><text fill="#000000" font-family="sans-serif" font-size="14" font-weight="bold" lengthAdjust="spacingAndGlyphs" textLength="95" x="1210" y="128.5332">common_dart</text><!--cluster lib.benchmarks.ng1n--><polygon fill="#FFFFFF" filter="url(#f1rhmu15jinp7t)" points="1264,361,1305,361,1312,384.6094,1470,384.6094,1470,529,1264,529,1264,361" style="stroke: #000000; stroke-width: 1.5;"/><line style="stroke: #000000; stroke-width: 1.5;" x1="1264" x2="1312" y1="384.6094" y2="384.6094"/><text fill="#000000" font-family="sans-serif" font-size="14" font-weight="bold" lengthAdjust="spacingAndGlyphs" textLength="35" x="1268" y="377.5332">ng1n</text><!--cluster lib.benchmarks.ng1n.common_dart--><polygon fill="#FFFFFF" filter="url(#f1rhmu15jinp7t)" points="1288,405,1389,405,1396,428.6094,1446,428.6094,1446,505,1288,505,1288,405" style="stroke: #000000; stroke-width: 1.5;"/><line style="stroke: #000000; stroke-width: 1.5;" x1="1288" x2="1396" y1="428.6094" y2="428.6094"/><text fill="#000000" font-family="sans-serif" font-size="14" font-weight="bold" lengthAdjust="spacingAndGlyphs" textLength="95" x="1292" y="421.5332">common_dart</text><!--cluster lib.benchmarks.pixi--><polygon fill="#FFFFFF" filter="url(#f1rhmu15jinp7t)" points="1494,361,1525,361,1532,384.6094,1688,384.6094,1688,529,1494,529,1494,361" style="stroke: #000000; stroke-width: 1.5;"/><line style="stroke: #000000; stroke-width: 1.5;" x1="1494" x2="1532" y1="384.6094" y2="384.6094"/><text fill="#000000" font-family="sans-serif" font-size="14" font-weight="bold" lengthAdjust="spacingAndGlyphs" textLength="25" x="1498" y="377.5332">pixi</text><!--cluster lib.benchmarks.pixi.common_dart--><polygon fill="#FFFFFF" filter="url(#f1rhmu15jinp7t)" points="1518,405,1619,405,1626,428.6094,1664,428.6094,1664,505,1518,505,1518,405" style="stroke: #000000; stroke-width: 1.5;"/><line style="stroke: #000000; stroke-width: 1.5;" x1="1518" x2="1626" y1="428.6094" y2="428.6094"/><text fill="#000000" font-family="sans-serif" font-size="14" font-weight="bold" lengthAdjust="spacingAndGlyphs" textLength="95" x="1522" y="421.5332">common_dart</text><!--cluster lib.benchmarks.stagexl--><polygon fill="#FFFFFF" filter="url(#f1rhmu15jinp7t)" points="1712,361,1769,361,1776,384.6094,1928,384.6094,1928,529,1712,529,1712,361" style="stroke: #000000; stroke-width: 1.5;"/><line style="stroke: #000000; stroke-width: 1.5;" x1="1712" x2="1776" y1="384.6094" y2="384.6094"/><text fill="#000000" font-family="sans-serif" font-size="14" font-weight="bold" lengthAdjust="spacingAndGlyphs" textLength="51" x="1716" y="377.5332">stagexl</text><!--cluster lib.benchmarks.stagexl.common_dart--><polygon fill="#FFFFFF" filter="url(#f1rhmu15jinp7t)" points="1736,405,1837,405,1844,428.6094,1904,428.6094,1904,505,1736,505,1736,405" style="stroke: #000000; stroke-width: 1.5;"/><line style="stroke: #000000; stroke-width: 1.5;" x1="1736" x2="1844" y1="428.6094" y2="428.6094"/><text fill="#000000" font-family="sans-serif" font-size="14" font-weight="bold" lengthAdjust="spacingAndGlyphs" textLength="95" x="1740" y="421.5332">common_dart</text><!--cluster lib.custom--><polygon fill="#FFFFFF" filter="url(#f1rhmu15jinp7t)" points="590,577,647,577,654,600.6094,2294,600.6094,2294,1101,590,1101,590,577" style="stroke: #000000; stroke-width: 1.5;"/><line style="stroke: #000000; stroke-width: 1.5;" x1="590" x2="654" y1="600.6094" y2="600.6094"/><text fill="#000000" font-family="sans-serif" font-size="14" font-weight="bold" lengthAdjust="spacingAndGlyphs" textLength="51" x="594" y="593.5332">custom</text><!--cluster lib.custom.filters--><polygon fill="#FFCC00" filter="url(#f1rhmu15jinp7t)" points="614,621,661,621,668,644.6094,2270,644.6094,2270,1077,614,1077,614,621" style="stroke: #000000; stroke-width: 1.5;"/><line style="stroke: #000000; stroke-width: 1.5;" x1="614" x2="668" y1="644.6094" y2="644.6094"/><text fill="#000000" font-family="sans-serif" font-size="14" font-weight="bold" lengthAdjust="spacingAndGlyphs" textLength="41" x="618" y="637.5332">filters</text><!--cluster lib.custom.filters.engines--><polygon fill="#FFCC00" filter="url(#f1rhmu15jinp7t)" points="1262,665,1325,665,1332,688.6094,2246,688.6094,2246,861,1262,861,1262,665" style="stroke: #000000; stroke-width: 1.5;"/><line style="stroke: #000000; stroke-width: 1.5;" x1="1262" x2="1332" y1="688.6094" y2="688.6094"/><text fill="#000000" font-family="sans-serif" font-size="14" font-weight="bold" lengthAdjust="spacingAndGlyphs" textLength="57" x="1266" y="681.5332">engines</text><!--cluster lib.custom.filters.engines.common_dart--><polygon fill="#FFCC00" filter="url(#f1rhmu15jinp7t)" points="1910,709,2011,709,2018,732.6094,2222,732.6094,2222,837,1910,837,1910,709" style="stroke: #000000; stroke-width: 1.5;"/><line style="stroke: #000000; stroke-width: 1.5;" x1="1910" x2="2018" y1="732.6094" y2="732.6094"/><text fill="#000000" font-family="sans-serif" font-size="14" font-weight="bold" lengthAdjust="spacingAndGlyphs" textLength="95" x="1914" y="725.5332">common_dart</text><!--cluster lib.custom.filters.engines.ng1n_dart--><polygon fill="#FFCC00" filter="url(#f1rhmu15jinp7t)" points="1286,723,1363,723,1370,746.6094,1470,746.6094,1470,823,1286,823,1286,723" style="stroke: #000000; stroke-width: 1.5;"/><line style="stroke: #000000; stroke-width: 1.5;" x1="1286" x2="1370" y1="746.6094" y2="746.6094"/><text fill="#000000" font-family="sans-serif" font-size="14" font-weight="bold" lengthAdjust="spacingAndGlyphs" textLength="71" x="1290" y="739.5332">ng1n_dart</text><!--cluster lib.custom.filters.engines.stagexl_dart--><polygon fill="#FFCC00" filter="url(#f1rhmu15jinp7t)" points="1692,723,1785,723,1792,746.6094,1886,746.6094,1886,823,1692,823,1692,723" style="stroke: #000000; stroke-width: 1.5;"/><line style="stroke: #000000; stroke-width: 1.5;" x1="1692" x2="1792" y1="746.6094" y2="746.6094"/><text fill="#000000" font-family="sans-serif" font-size="14" font-weight="bold" lengthAdjust="spacingAndGlyphs" textLength="87" x="1696" y="739.5332">stagexl_dart</text><!--cluster lib.custom.filters.engines.pixi_dart--><polygon fill="#FFCC00" filter="url(#f1rhmu15jinp7t)" points="1494,723,1561,723,1568,746.6094,1668,746.6094,1668,823,1494,823,1494,723" style="stroke: #000000; stroke-width: 1.5;"/><line style="stroke: #000000; stroke-width: 1.5;" x1="1494" x2="1568" y1="746.6094" y2="746.6094"/><text fill="#000000" font-family="sans-serif" font-size="14" font-weight="bold" lengthAdjust="spacingAndGlyphs" textLength="61" x="1498" y="739.5332">pixi_dart</text><!--cluster lib.custom.filters.interface--><polygon fill="#FFCC00" filter="url(#f1rhmu15jinp7t)" points="638,665,707,665,714,688.6094,1238,688.6094,1238,1053,638,1053,638,665" style="stroke: #000000; stroke-width: 1.5;"/><line style="stroke: #000000; stroke-width: 1.5;" x1="638" x2="714" y1="688.6094" y2="688.6094"/><text fill="#000000" font-family="sans-serif" font-size="14" font-weight="bold" lengthAdjust="spacingAndGlyphs" textLength="63" x="642" y="681.5332">interface</text><!--cluster lib.custom.filters.interface.common_dart--><polygon fill="#FFCC00" filter="url(#f1rhmu15jinp7t)" points="806,709,907,709,914,732.6094,1060,732.6094,1060,837,806,837,806,709" style="stroke: #000000; stroke-width: 1.5;"/><line style="stroke: #000000; stroke-width: 1.5;" x1="806" x2="914" y1="732.6094" y2="732.6094"/><text fill="#000000" font-family="sans-serif" font-size="14" font-weight="bold" lengthAdjust="spacingAndGlyphs" textLength="95" x="810" y="725.5332">common_dart</text><!--cluster lib.custom.filters.interface.ng1n_dart--><polygon fill="#FFCC00" filter="url(#f1rhmu15jinp7t)" points="662,929,739,929,746,952.6094,830,952.6094,830,1029,662,1029,662,929" style="stroke: #000000; stroke-width: 1.5;"/><line style="stroke: #000000; stroke-width: 1.5;" x1="662" x2="746" y1="952.6094" y2="952.6094"/><text fill="#000000" font-family="sans-serif" font-size="14" font-weight="bold" lengthAdjust="spacingAndGlyphs" textLength="71" x="666" y="945.5332">ng1n_dart</text><!--cluster lib.custom.filters.interface.stagexl_dart--><polygon fill="#FFCC00" filter="url(#f1rhmu15jinp7t)" points="1036,929,1129,929,1136,952.6094,1214,952.6094,1214,1029,1036,1029,1036,929" style="stroke: #000000; stroke-width: 1.5;"/><line style="stroke: #000000; stroke-width: 1.5;" x1="1036" x2="1136" y1="952.6094" y2="952.6094"/><text fill="#000000" font-family="sans-serif" font-size="14" font-weight="bold" lengthAdjust="spacingAndGlyphs" textLength="87" x="1040" y="945.5332">stagexl_dart</text><!--cluster lib.custom.filters.interface.pixi_dart--><polygon fill="#FFCC00" filter="url(#f1rhmu15jinp7t)" points="854,929,921,929,928,952.6094,1012,952.6094,1012,1029,854,1029,854,929" style="stroke: #000000; stroke-width: 1.5;"/><line style="stroke: #000000; stroke-width: 1.5;" x1="854" x2="928" y1="952.6094" y2="952.6094"/><text fill="#000000" font-family="sans-serif" font-size="14" font-weight="bold" lengthAdjust="spacingAndGlyphs" textLength="61" x="858" y="945.5332">pixi_dart</text><!--cluster lib.interface--><polygon fill="#FFFFFF" filter="url(#f1rhmu15jinp7t)" points="46,361,115,361,122,384.6094,566,384.6094,566,847,46,847,46,361" style="stroke: #000000; stroke-width: 1.5;"/><line style="stroke: #000000; stroke-width: 1.5;" x1="46" x2="122" y1="384.6094" y2="384.6094"/><text fill="#000000" font-family="sans-serif" font-size="14" font-weight="bold" lengthAdjust="spacingAndGlyphs" textLength="63" x="50" y="377.5332">interface</text><!--cluster lib.interface.common_dart--><polygon fill="#FFFFFF" filter="url(#f1rhmu15jinp7t)" points="327,405,428,405,435,428.6094,439,428.6094,439,505,327,505,327,405" style="stroke: #000000; stroke-width: 1.5;"/><line style="stroke: #000000; stroke-width: 1.5;" x1="327" x2="435" y1="428.6094" y2="428.6094"/><text fill="#000000" font-family="sans-serif" font-size="14" font-weight="bold" lengthAdjust="spacingAndGlyphs" textLength="95" x="331" y="421.5332">common_dart</text><!--cluster lib.interface.ng1n_dart--><polygon fill="#FFFFFF" filter="url(#f1rhmu15jinp7t)" points="70,723,147,723,154,746.6094,212,746.6094,212,823,70,823,70,723" style="stroke: #000000; stroke-width: 1.5;"/><line style="stroke: #000000; stroke-width: 1.5;" x1="70" x2="154" y1="746.6094" y2="746.6094"/><text fill="#000000" font-family="sans-serif" font-size="14" font-weight="bold" lengthAdjust="spacingAndGlyphs" textLength="71" x="74" y="739.5332">ng1n_dart</text><!--cluster lib.interface.pixi_dart--><polygon fill="#FFFFFF" filter="url(#f1rhmu15jinp7t)" points="236,723,303,723,310,746.6094,366,746.6094,366,823,236,823,236,723" style="stroke: #000000; stroke-width: 1.5;"/><line style="stroke: #000000; stroke-width: 1.5;" x1="236" x2="310" y1="746.6094" y2="746.6094"/><text fill="#000000" font-family="sans-serif" font-size="14" font-weight="bold" lengthAdjust="spacingAndGlyphs" textLength="61" x="240" y="739.5332">pixi_dart</text><!--cluster lib.interface.stagexl_dart--><polygon fill="#FFFFFF" filter="url(#f1rhmu15jinp7t)" points="390,723,483,723,490,746.6094,542,746.6094,542,823,390,823,390,723" style="stroke: #000000; stroke-width: 1.5;"/><line style="stroke: #000000; stroke-width: 1.5;" x1="390" x2="490" y1="746.6094" y2="746.6094"/><text fill="#000000" font-family="sans-serif" font-size="14" font-weight="bold" lengthAdjust="spacingAndGlyphs" textLength="87" x="394" y="739.5332">stagexl_dart</text><!--cluster lib.runs--><polygon fill="#FFFFFF" filter="url(#f1rhmu15jinp7t)" points="2318,885,2356,885,2363,908.6094,2580,908.6094,2580,1053,2318,1053,2318,885" style="stroke: #000000; stroke-width: 1.5;"/><line style="stroke: #000000; stroke-width: 1.5;" x1="2318" x2="2363" y1="908.6094" y2="908.6094"/><text fill="#000000" font-family="sans-serif" font-size="14" font-weight="bold" lengthAdjust="spacingAndGlyphs" textLength="32" x="2322" y="901.5332">runs</text><!--cluster lib.runs.filters_dart--><polygon fill="#FFCC00" filter="url(#f1rhmu15jinp7t)" points="2342,929,2425,929,2432,952.6094,2556,952.6094,2556,1029,2342,1029,2342,929" style="stroke: #000000; stroke-width: 1.5;"/><line style="stroke: #000000; stroke-width: 1.5;" x1="2342" x2="2432" y1="952.6094" y2="952.6094"/><text fill="#000000" font-family="sans-serif" font-size="14" font-weight="bold" lengthAdjust="spacingAndGlyphs" textLength="77" x="2346" y="945.5332">filters_dart</text><!--cluster web--><polygon fill="#FFFFFF" filter="url(#f1rhmu15jinp7t)" points="2628,56.5,2663,56.5,2670,80.1094,3251,80.1094,3251,532.5,2628,532.5,2628,56.5" style="stroke: #000000; stroke-width: 1.5;"/><line style="stroke: #000000; stroke-width: 1.5;" x1="2628" x2="2670" y1="80.1094" y2="80.1094"/><text fill="#000000" font-family="sans-serif" font-size="14" font-weight="bold" lengthAdjust="spacingAndGlyphs" textLength="29" x="2632" y="73.0332">web</text><!--cluster web.run--><polygon fill="#FFFFFF" filter="url(#f1rhmu15jinp7t)" points="2652,100.5,2682,100.5,2689,124.1094,3227,124.1094,3227,508.5,2652,508.5,2652,100.5" style="stroke: #000000; stroke-width: 1.5;"/><line style="stroke: #000000; stroke-width: 1.5;" x1="2652" x2="2689" y1="124.1094" y2="124.1094"/><text fill="#000000" font-family="sans-serif" font-size="14" font-weight="bold" lengthAdjust="spacingAndGlyphs" textLength="24" x="2656" y="117.0332">run</text><!--cluster web.run.filter_dart--><polygon fill="#FFCC00" filter="url(#f1rhmu15jinp7t)" points="2684,152.5,2759,152.5,2766,176.1094,3195,176.1094,3195,296.5,2684,296.5,2684,152.5" style="stroke: #000000; stroke-width: 1.5;"/><line style="stroke: #000000; stroke-width: 1.5;" x1="2684" x2="2766" y1="176.1094" y2="176.1094"/><text fill="#000000" font-family="sans-serif" font-size="14" font-weight="bold" lengthAdjust="spacingAndGlyphs" textLength="69" x="2688" y="169.0332">filter_dart</text><!--class lib.benchmarks.common_dart.BenchmarkManager--><rect fill="#FEFECE" filter="url(#f1rhmu15jinp7t)" height="48" id="lib.benchmarks.common_dart.BenchmarkManager" style="stroke: #A80036; stroke-width: 1.5;" width="143" x="1772.5" y="210.5"/><ellipse cx="1787.5" cy="226.5" fill="#ADD1B2" rx="11" ry="11" style="stroke: #A80036; stroke-width: 1.0;"/><path d="M1789.5,223 Q1789.7031,222.5 1789.9375,222.25 Q1790.1719,222 1790.4375,222 Q1790.9063,222 1791.2031,222.2813 Q1791.5,222.5625 1791.5,223.2188 L1791.5,224.7813 Q1791.5,225.4375 1791.2188,225.7188 Q1790.9375,226 1790.5,226 Q1790.1094,226 1789.8594,225.8281 Q1789.6094,225.6563 1789.5,225.2031 Q1789.4531,224.8906 1789.2813,224.7188 Q1788.9688,224.3906 1788.4063,224.1953 Q1787.8438,224 1787.2813,224 Q1786.5781,224 1785.9922,224.2813 Q1785.4063,224.5625 1784.9531,225.1875 Q1784.5,225.8125 1784.5,226.6719 L1784.5,227.5938 Q1784.5,228.625 1785.3438,229.3125 Q1786.1875,230 1787.6875,230 Q1788.5781,230 1789.2031,229.7969 Q1789.5625,229.6875 1789.9688,229.3281 Q1790.2344,229.125 1790.375,229.0625 Q1790.5156,229 1790.6875,229 Q1791.0156,229 1791.2578,229.2578 Q1791.5,229.5156 1791.5,229.875 Q1791.5,230.2188 1791.1563,230.625 Q1790.6563,231.2188 1789.8594,231.5469 Q1788.8125,232 1787.5313,232 Q1786.0313,232 1784.8281,231.4063 Q1783.8594,230.9375 1783.1797,229.9219 Q1782.5,228.9063 1782.5,227.7031 L1782.5,226.6094 Q1782.5,225.3594 1783.1016,224.2656 Q1783.7031,223.1719 1784.7578,222.5859 Q1785.8125,222 1787,222 Q1787.7188,222 1788.3438,222.25 Q1788.9688,222.5 1789.5,223 Z "/><text fill="#000000" font-family="sans-serif" font-size="12" lengthAdjust="spacingAndGlyphs" textLength="111" x="1801.5" y="231.4102">BenchmarkManager</text><line style="stroke: #A80036; stroke-width: 1.5;" x1="1773.5" x2="1914.5" y1="242.5" y2="242.5"/><line style="stroke: #A80036; stroke-width: 1.5;" x1="1773.5" x2="1914.5" y1="250.5" y2="250.5"/><!--class lib.benchmarks.common_dart.GraphicEngineBenchmark--><rect fill="#FEFECE" filter="url(#f1rhmu15jinp7t)" height="172.5234" id="lib.benchmarks.common_dart.GraphicEngineBenchmark" style="stroke: #A80036; stroke-width: 1.5;" width="177" x="1560.5" y="148"/><ellipse cx="1575.5" cy="164" fill="#ADD1B2" rx="11" ry="11" style="stroke: #A80036; stroke-width: 1.0;"/><path d="M1577.5,160.5 Q1577.7031,160 1577.9375,159.75 Q1578.1719,159.5 1578.4375,159.5 Q1578.9063,159.5 1579.2031,159.7813 Q1579.5,160.0625 1579.5,160.7188 L1579.5,162.2813 Q1579.5,162.9375 1579.2188,163.2188 Q1578.9375,163.5 1578.5,163.5 Q1578.1094,163.5 1577.8594,163.3281 Q1577.6094,163.1563 1577.5,162.7031 Q1577.4531,162.3906 1577.2813,162.2188 Q1576.9688,161.8906 1576.4063,161.6953 Q1575.8438,161.5 1575.2813,161.5 Q1574.5781,161.5 1573.9922,161.7813 Q1573.4063,162.0625 1572.9531,162.6875 Q1572.5,163.3125 1572.5,164.1719 L1572.5,165.0938 Q1572.5,166.125 1573.3438,166.8125 Q1574.1875,167.5 1575.6875,167.5 Q1576.5781,167.5 1577.2031,167.2969 Q1577.5625,167.1875 1577.9688,166.8281 Q1578.2344,166.625 1578.375,166.5625 Q1578.5156,166.5 1578.6875,166.5 Q1579.0156,166.5 1579.2578,166.7578 Q1579.5,167.0156 1579.5,167.375 Q1579.5,167.7188 1579.1563,168.125 Q1578.6563,168.7188 1577.8594,169.0469 Q1576.8125,169.5 1575.5313,169.5 Q1574.0313,169.5 1572.8281,168.9063 Q1571.8594,168.4375 1571.1797,167.4219 Q1570.5,166.4063 1570.5,165.2031 L1570.5,164.1094 Q1570.5,162.8594 1571.1016,161.7656 Q1571.7031,160.6719 1572.7578,160.0859 Q1573.8125,159.5 1575,159.5 Q1575.7188,159.5 1576.3438,159.75 Q1576.9688,160 1577.5,160.5 Z "/><text fill="#000000" font-family="sans-serif" font-size="12" lengthAdjust="spacingAndGlyphs" textLength="145" x="1589.5" y="168.9102">GraphicEngineBenchmark</text><line style="stroke: #A80036; stroke-width: 1.5;" x1="1561.5" x2="1736.5" y1="180" y2="180"/><text fill="#000000" font-family="sans-serif" font-size="11" lengthAdjust="spacingAndGlyphs" textLength="98" x="1566.5" y="195.4189">int get canvasWidth;</text><text fill="#000000" font-family="sans-serif" font-size="11" lengthAdjust="spacingAndGlyphs" textLength="101" x="1566.5" y="209.2549">int get canvasHeight;</text><text fill="#000000" font-family="sans-serif" font-size="11" lengthAdjust="spacingAndGlyphs" textLength="110" x="1566.5" y="223.0908">Interface get interface;</text><text fill="#000000" font-family="sans-serif" font-size="11" lengthAdjust="spacingAndGlyphs" textLength="134" x="1566.5" y="236.9268">CanvasElement get canvas;</text><text fill="#000000" font-family="sans-serif" font-size="11" lengthAdjust="spacingAndGlyphs" textLength="106" x="1566.5" y="250.7627">Element get container;</text><text fill="#000000" font-family="sans-serif" font-size="11" lengthAdjust="spacingAndGlyphs" textLength="162" x="1566.5" y="264.5986">BenchmarkManager get manager;</text><line style="stroke: #A80036; stroke-width: 1.5;" x1="1561.5" x2="1736.5" y1="271.0156" y2="271.0156"/><text fill="#000000" font-family="sans-serif" font-size="11" lengthAdjust="spacingAndGlyphs" textLength="48" x="1566.5" y="286.4346">initialize();</text><text fill="#000000" font-family="sans-serif" font-size="11" lengthAdjust="spacingAndGlyphs" textLength="47" x="1566.5" y="300.2705">release();</text><text fill="#000000" font-family="sans-serif" font-size="11" lengthAdjust="spacingAndGlyphs" textLength="117" x="1566.5" y="314.1064">frameRendering(num v);</text><!--class lib.benchmarks.common_dart.BenchmarkBase--><rect fill="#FEFECE" filter="url(#f1rhmu15jinp7t)" height="48" id="lib.benchmarks.common_dart.BenchmarkBase" style="stroke: #A80036; stroke-width: 1.5;" width="124" x="1951" y="210.5"/><ellipse cx="1966" cy="226.5" fill="#ADD1B2" rx="11" ry="11" style="stroke: #A80036; stroke-width: 1.0;"/><path d="M1968,223 Q1968.2031,222.5 1968.4375,222.25 Q1968.6719,222 1968.9375,222 Q1969.4063,222 1969.7031,222.2813 Q1970,222.5625 1970,223.2188 L1970,224.7813 Q1970,225.4375 1969.7188,225.7188 Q1969.4375,226 1969,226 Q1968.6094,226 1968.3594,225.8281 Q1968.1094,225.6563 1968,225.2031 Q1967.9531,224.8906 1967.7813,224.7188 Q1967.4688,224.3906 1966.9063,224.1953 Q1966.3438,224 1965.7813,224 Q1965.0781,224 1964.4922,224.2813 Q1963.9063,224.5625 1963.4531,225.1875 Q1963,225.8125 1963,226.6719 L1963,227.5938 Q1963,228.625 1963.8438,229.3125 Q1964.6875,230 1966.1875,230 Q1967.0781,230 1967.7031,229.7969 Q1968.0625,229.6875 1968.4688,229.3281 Q1968.7344,229.125 1968.875,229.0625 Q1969.0156,229 1969.1875,229 Q1969.5156,229 1969.7578,229.2578 Q1970,229.5156 1970,229.875 Q1970,230.2188 1969.6563,230.625 Q1969.1563,231.2188 1968.3594,231.5469 Q1967.3125,232 1966.0313,232 Q1964.5313,232 1963.3281,231.4063 Q1962.3594,230.9375 1961.6797,229.9219 Q1961,228.9063 1961,227.7031 L1961,226.6094 Q1961,225.3594 1961.6016,224.2656 Q1962.2031,223.1719 1963.2578,222.5859 Q1964.3125,222 1965.5,222 Q1966.2188,222 1966.8438,222.25 Q1967.4688,222.5 1968,223 Z "/><text fill="#000000" font-family="sans-serif" font-size="12" lengthAdjust="spacingAndGlyphs" textLength="92" x="1980" y="231.4102">BenchmarkBase</text><line style="stroke: #A80036; stroke-width: 1.5;" x1="1952" x2="2074" y1="242.5" y2="242.5"/><line style="stroke: #A80036; stroke-width: 1.5;" x1="1952" x2="2074" y1="250.5" y2="250.5"/><!--class lib.benchmarks.common_dart.BenchmarkRunner--><rect fill="#FEFECE" filter="url(#f1rhmu15jinp7t)" height="48" id="lib.benchmarks.common_dart.BenchmarkRunner" style="stroke: #A80036; stroke-width: 1.5;" width="136" x="1389" y="210.5"/><ellipse cx="1404" cy="226.5" fill="#ADD1B2" rx="11" ry="11" style="stroke: #A80036; stroke-width: 1.0;"/><path d="M1406,223 Q1406.2031,222.5 1406.4375,222.25 Q1406.6719,222 1406.9375,222 Q1407.4063,222 1407.7031,222.2813 Q1408,222.5625 1408,223.2188 L1408,224.7813 Q1408,225.4375 1407.7188,225.7188 Q1407.4375,226 1407,226 Q1406.6094,226 1406.3594,225.8281 Q1406.1094,225.6563 1406,225.2031 Q1405.9531,224.8906 1405.7813,224.7188 Q1405.4688,224.3906 1404.9063,224.1953 Q1404.3438,224 1403.7813,224 Q1403.0781,224 1402.4922,224.2813 Q1401.9063,224.5625 1401.4531,225.1875 Q1401,225.8125 1401,226.6719 L1401,227.5938 Q1401,228.625 1401.8438,229.3125 Q1402.6875,230 1404.1875,230 Q1405.0781,230 1405.7031,229.7969 Q1406.0625,229.6875 1406.4688,229.3281 Q1406.7344,229.125 1406.875,229.0625 Q1407.0156,229 1407.1875,229 Q1407.5156,229 1407.7578,229.2578 Q1408,229.5156 1408,229.875 Q1408,230.2188 1407.6563,230.625 Q1407.1563,231.2188 1406.3594,231.5469 Q1405.3125,232 1404.0313,232 Q1402.5313,232 1401.3281,231.4063 Q1400.3594,230.9375 1399.6797,229.9219 Q1399,228.9063 1399,227.7031 L1399,226.6094 Q1399,225.3594 1399.6016,224.2656 Q1400.2031,223.1719 1401.2578,222.5859 Q1402.3125,222 1403.5,222 Q1404.2188,222 1404.8438,222.25 Q1405.4688,222.5 1406,223 Z "/><text fill="#000000" font-family="sans-serif" font-size="12" lengthAdjust="spacingAndGlyphs" textLength="104" x="1418" y="231.4102">BenchmarkRunner</text><line style="stroke: #A80036; stroke-width: 1.5;" x1="1390" x2="1524" y1="242.5" y2="242.5"/><line style="stroke: #A80036; stroke-width: 1.5;" x1="1390" x2="1524" y1="250.5" y2="250.5"/><!--class lib.benchmarks.common_dart.BenchmarkResult--><rect fill="#FEFECE" filter="url(#f1rhmu15jinp7t)" height="48" id="lib.benchmarks.common_dart.BenchmarkResult" style="stroke: #A80036; stroke-width: 1.5;" width="131" x="1222.5" y="210.5"/><ellipse cx="1237.5" cy="226.5" fill="#ADD1B2" rx="11" ry="11" style="stroke: #A80036; stroke-width: 1.0;"/><path d="M1239.5,223 Q1239.7031,222.5 1239.9375,222.25 Q1240.1719,222 1240.4375,222 Q1240.9063,222 1241.2031,222.2813 Q1241.5,222.5625 1241.5,223.2188 L1241.5,224.7813 Q1241.5,225.4375 1241.2188,225.7188 Q1240.9375,226 1240.5,226 Q1240.1094,226 1239.8594,225.8281 Q1239.6094,225.6563 1239.5,225.2031 Q1239.4531,224.8906 1239.2813,224.7188 Q1238.9688,224.3906 1238.4063,224.1953 Q1237.8438,224 1237.2813,224 Q1236.5781,224 1235.9922,224.2813 Q1235.4063,224.5625 1234.9531,225.1875 Q1234.5,225.8125 1234.5,226.6719 L1234.5,227.5938 Q1234.5,228.625 1235.3438,229.3125 Q1236.1875,230 1237.6875,230 Q1238.5781,230 1239.2031,229.7969 Q1239.5625,229.6875 1239.9688,229.3281 Q1240.2344,229.125 1240.375,229.0625 Q1240.5156,229 1240.6875,229 Q1241.0156,229 1241.2578,229.2578 Q1241.5,229.5156 1241.5,229.875 Q1241.5,230.2188 1241.1563,230.625 Q1240.6563,231.2188 1239.8594,231.5469 Q1238.8125,232 1237.5313,232 Q1236.0313,232 1234.8281,231.4063 Q1233.8594,230.9375 1233.1797,229.9219 Q1232.5,228.9063 1232.5,227.7031 L1232.5,226.6094 Q1232.5,225.3594 1233.1016,224.2656 Q1233.7031,223.1719 1234.7578,222.5859 Q1235.8125,222 1237,222 Q1237.7188,222 1238.3438,222.25 Q1238.9688,222.5 1239.5,223 Z "/><text fill="#000000" font-family="sans-serif" font-size="12" lengthAdjust="spacingAndGlyphs" textLength="99" x="1251.5" y="231.4102">BenchmarkResult</text><line style="stroke: #A80036; stroke-width: 1.5;" x1="1223.5" x2="1352.5" y1="242.5" y2="242.5"/><line style="stroke: #A80036; stroke-width: 1.5;" x1="1223.5" x2="1352.5" y1="250.5" y2="250.5"/><!--class lib.benchmarks.ng1n.common_dart.Ng1nBenchmark--><rect fill="#FEFECE" filter="url(#f1rhmu15jinp7t)" height="48" id="lib.benchmarks.ng1n.common_dart.Ng1nBenchmark" style="stroke: #A80036; stroke-width: 1.5;" width="125" x="1304.5" y="441"/><ellipse cx="1319.5" cy="457" fill="#ADD1B2" rx="11" ry="11" style="stroke: #A80036; stroke-width: 1.0;"/><path d="M1321.5,453.5 Q1321.7031,453 1321.9375,452.75 Q1322.1719,452.5 1322.4375,452.5 Q1322.9063,452.5 1323.2031,452.7813 Q1323.5,453.0625 1323.5,453.7188 L1323.5,455.2813 Q1323.5,455.9375 1323.2188,456.2188 Q1322.9375,456.5 1322.5,456.5 Q1322.1094,456.5 1321.8594,456.3281 Q1321.6094,456.1563 1321.5,455.7031 Q1321.4531,455.3906 1321.2813,455.2188 Q1320.9688,454.8906 1320.4063,454.6953 Q1319.8438,454.5 1319.2813,454.5 Q1318.5781,454.5 1317.9922,454.7813 Q1317.4063,455.0625 1316.9531,455.6875 Q1316.5,456.3125 1316.5,457.1719 L1316.5,458.0938 Q1316.5,459.125 1317.3438,459.8125 Q1318.1875,460.5 1319.6875,460.5 Q1320.5781,460.5 1321.2031,460.2969 Q1321.5625,460.1875 1321.9688,459.8281 Q1322.2344,459.625 1322.375,459.5625 Q1322.5156,459.5 1322.6875,459.5 Q1323.0156,459.5 1323.2578,459.7578 Q1323.5,460.0156 1323.5,460.375 Q1323.5,460.7188 1323.1563,461.125 Q1322.6563,461.7188 1321.8594,462.0469 Q1320.8125,462.5 1319.5313,462.5 Q1318.0313,462.5 1316.8281,461.9063 Q1315.8594,461.4375 1315.1797,460.4219 Q1314.5,459.4063 1314.5,458.2031 L1314.5,457.1094 Q1314.5,455.8594 1315.1016,454.7656 Q1315.7031,453.6719 1316.7578,453.0859 Q1317.8125,452.5 1319,452.5 Q1319.7188,452.5 1320.3438,452.75 Q1320.9688,453 1321.5,453.5 Z "/><text fill="#000000" font-family="sans-serif" font-size="12" lengthAdjust="spacingAndGlyphs" textLength="93" x="1333.5" y="461.9102">Ng1nBenchmark</text><line style="stroke: #A80036; stroke-width: 1.5;" x1="1305.5" x2="1428.5" y1="473" y2="473"/><line style="stroke: #A80036; stroke-width: 1.5;" x1="1305.5" x2="1428.5" y1="481" y2="481"/><!--class lib.benchmarks.pixi.common_dart.PixiBenchmark--><rect fill="#FEFECE" filter="url(#f1rhmu15jinp7t)" height="48" id="lib.benchmarks.pixi.common_dart.PixiBenchmark" style="stroke: #A80036; stroke-width: 1.5;" width="114" x="1534" y="441"/><ellipse cx="1549" cy="457" fill="#ADD1B2" rx="11" ry="11" style="stroke: #A80036; stroke-width: 1.0;"/><path d="M1551,453.5 Q1551.2031,453 1551.4375,452.75 Q1551.6719,452.5 1551.9375,452.5 Q1552.4063,452.5 1552.7031,452.7813 Q1553,453.0625 1553,453.7188 L1553,455.2813 Q1553,455.9375 1552.7188,456.2188 Q1552.4375,456.5 1552,456.5 Q1551.6094,456.5 1551.3594,456.3281 Q1551.1094,456.1563 1551,455.7031 Q1550.9531,455.3906 1550.7813,455.2188 Q1550.4688,454.8906 1549.9063,454.6953 Q1549.3438,454.5 1548.7813,454.5 Q1548.0781,454.5 1547.4922,454.7813 Q1546.9063,455.0625 1546.4531,455.6875 Q1546,456.3125 1546,457.1719 L1546,458.0938 Q1546,459.125 1546.8438,459.8125 Q1547.6875,460.5 1549.1875,460.5 Q1550.0781,460.5 1550.7031,460.2969 Q1551.0625,460.1875 1551.4688,459.8281 Q1551.7344,459.625 1551.875,459.5625 Q1552.0156,459.5 1552.1875,459.5 Q1552.5156,459.5 1552.7578,459.7578 Q1553,460.0156 1553,460.375 Q1553,460.7188 1552.6563,461.125 Q1552.1563,461.7188 1551.3594,462.0469 Q1550.3125,462.5 1549.0313,462.5 Q1547.5313,462.5 1546.3281,461.9063 Q1545.3594,461.4375 1544.6797,460.4219 Q1544,459.4063 1544,458.2031 L1544,457.1094 Q1544,455.8594 1544.6016,454.7656 Q1545.2031,453.6719 1546.2578,453.0859 Q1547.3125,452.5 1548.5,452.5 Q1549.2188,452.5 1549.8438,452.75 Q1550.4688,453 1551,453.5 Z "/><text fill="#000000" font-family="sans-serif" font-size="12" lengthAdjust="spacingAndGlyphs" textLength="82" x="1563" y="461.9102">PixiBenchmark</text><line style="stroke: #A80036; stroke-width: 1.5;" x1="1535" x2="1647" y1="473" y2="473"/><line style="stroke: #A80036; stroke-width: 1.5;" x1="1535" x2="1647" y1="481" y2="481"/><!--class lib.benchmarks.stagexl.common_dart.StagexlBenchmark--><rect fill="#FEFECE" filter="url(#f1rhmu15jinp7t)" height="48" id="lib.benchmarks.stagexl.common_dart.StagexlBenchmark" style="stroke: #A80036; stroke-width: 1.5;" width="135" x="1752.5" y="441"/><ellipse cx="1767.5" cy="457" fill="#ADD1B2" rx="11" ry="11" style="stroke: #A80036; stroke-width: 1.0;"/><path d="M1769.5,453.5 Q1769.7031,453 1769.9375,452.75 Q1770.1719,452.5 1770.4375,452.5 Q1770.9063,452.5 1771.2031,452.7813 Q1771.5,453.0625 1771.5,453.7188 L1771.5,455.2813 Q1771.5,455.9375 1771.2188,456.2188 Q1770.9375,456.5 1770.5,456.5 Q1770.1094,456.5 1769.8594,456.3281 Q1769.6094,456.1563 1769.5,455.7031 Q1769.4531,455.3906 1769.2813,455.2188 Q1768.9688,454.8906 1768.4063,454.6953 Q1767.8438,454.5 1767.2813,454.5 Q1766.5781,454.5 1765.9922,454.7813 Q1765.4063,455.0625 1764.9531,455.6875 Q1764.5,456.3125 1764.5,457.1719 L1764.5,458.0938 Q1764.5,459.125 1765.3438,459.8125 Q1766.1875,460.5 1767.6875,460.5 Q1768.5781,460.5 1769.2031,460.2969 Q1769.5625,460.1875 1769.9688,459.8281 Q1770.2344,459.625 1770.375,459.5625 Q1770.5156,459.5 1770.6875,459.5 Q1771.0156,459.5 1771.2578,459.7578 Q1771.5,460.0156 1771.5,460.375 Q1771.5,460.7188 1771.1563,461.125 Q1770.6563,461.7188 1769.8594,462.0469 Q1768.8125,462.5 1767.5313,462.5 Q1766.0313,462.5 1764.8281,461.9063 Q1763.8594,461.4375 1763.1797,460.4219 Q1762.5,459.4063 1762.5,458.2031 L1762.5,457.1094 Q1762.5,455.8594 1763.1016,454.7656 Q1763.7031,453.6719 1764.7578,453.0859 Q1765.8125,452.5 1767,452.5 Q1767.7188,452.5 1768.3438,452.75 Q1768.9688,453 1769.5,453.5 Z "/><text fill="#000000" font-family="sans-serif" font-size="12" lengthAdjust="spacingAndGlyphs" textLength="103" x="1781.5" y="461.9102">StagexlBenchmark</text><line style="stroke: #A80036; stroke-width: 1.5;" x1="1753.5" x2="1886.5" y1="473" y2="473"/><line style="stroke: #A80036; stroke-width: 1.5;" x1="1753.5" x2="1886.5" y1="481" y2="481"/><!--class lib.custom.filters.engines.common_dart.BenchmarkFilterManager--><rect fill="#FEFECE" filter="url(#f1rhmu15jinp7t)" height="75.6719" id="lib.custom.filters.engines.common_dart.BenchmarkFilterManager" style="stroke: #A80036; stroke-width: 1.5;" width="280" x="1926" y="745"/><ellipse cx="1992.75" cy="761" fill="#ADD1B2" rx="11" ry="11" style="stroke: #A80036; stroke-width: 1.0;"/><path d="M1994.75,757.5 Q1994.9531,757 1995.1875,756.75 Q1995.4219,756.5 1995.6875,756.5 Q1996.1563,756.5 1996.4531,756.7813 Q1996.75,757.0625 1996.75,757.7188 L1996.75,759.2813 Q1996.75,759.9375 1996.4688,760.2188 Q1996.1875,760.5 1995.75,760.5 Q1995.3594,760.5 1995.1094,760.3281 Q1994.8594,760.1563 1994.75,759.7031 Q1994.7031,759.3906 1994.5313,759.2188 Q1994.2188,758.8906 1993.6563,758.6953 Q1993.0938,758.5 1992.5313,758.5 Q1991.8281,758.5 1991.2422,758.7813 Q1990.6563,759.0625 1990.2031,759.6875 Q1989.75,760.3125 1989.75,761.1719 L1989.75,762.0938 Q1989.75,763.125 1990.5938,763.8125 Q1991.4375,764.5 1992.9375,764.5 Q1993.8281,764.5 1994.4531,764.2969 Q1994.8125,764.1875 1995.2188,763.8281 Q1995.4844,763.625 1995.625,763.5625 Q1995.7656,763.5 1995.9375,763.5 Q1996.2656,763.5 1996.5078,763.7578 Q1996.75,764.0156 1996.75,764.375 Q1996.75,764.7188 1996.4063,765.125 Q1995.9063,765.7188 1995.1094,766.0469 Q1994.0625,766.5 1992.7813,766.5 Q1991.2813,766.5 1990.0781,765.9063 Q1989.1094,765.4375 1988.4297,764.4219 Q1987.75,763.4063 1987.75,762.2031 L1987.75,761.1094 Q1987.75,759.8594 1988.3516,758.7656 Q1988.9531,757.6719 1990.0078,757.0859 Q1991.0625,756.5 1992.25,756.5 Q1992.9688,756.5 1993.5938,756.75 Q1994.2188,757 1994.75,757.5 Z "/><text fill="#000000" font-family="sans-serif" font-size="12" lengthAdjust="spacingAndGlyphs" textLength="138" x="2013.25" y="765.9102">BenchmarkFilterManager</text><line style="stroke: #A80036; stroke-width: 1.5;" x1="1927" x2="2205" y1="777" y2="777"/><line style="stroke: #A80036; stroke-width: 1.5;" x1="1927" x2="2205" y1="785" y2="785"/><text fill="#000000" font-family="sans-serif" font-size="11" lengthAdjust="spacingAndGlyphs" textLength="268" x="1932" y="800.4189">Future&lt;Map&gt; runFilterBrightnessBenchmark(int objects)</text><text fill="#000000" font-family="sans-serif" font-size="11" lengthAdjust="spacingAndGlyphs" textLength="235" x="1932" y="814.2549">Future&lt;Map&gt; runFilterHueBenchmark(int objects)</text><!--class lib.custom.filters.engines.ng1n_dart.Ng1nBenchmarkFilter--><rect fill="#FEFECE" filter="url(#f1rhmu15jinp7t)" height="48" id="lib.custom.filters.engines.ng1n_dart.Ng1nBenchmarkFilter" style="stroke: #A80036; stroke-width: 1.5;" width="152" x="1302" y="759"/><ellipse cx="1317" cy="775" fill="#ADD1B2" rx="11" ry="11" style="stroke: #A80036; stroke-width: 1.0;"/><path d="M1319,771.5 Q1319.2031,771 1319.4375,770.75 Q1319.6719,770.5 1319.9375,770.5 Q1320.4063,770.5 1320.7031,770.7813 Q1321,771.0625 1321,771.7188 L1321,773.2813 Q1321,773.9375 1320.7188,774.2188 Q1320.4375,774.5 1320,774.5 Q1319.6094,774.5 1319.3594,774.3281 Q1319.1094,774.1563 1319,773.7031 Q1318.9531,773.3906 1318.7813,773.2188 Q1318.4688,772.8906 1317.9063,772.6953 Q1317.3438,772.5 1316.7813,772.5 Q1316.0781,772.5 1315.4922,772.7813 Q1314.9063,773.0625 1314.4531,773.6875 Q1314,774.3125 1314,775.1719 L1314,776.0938 Q1314,777.125 1314.8438,777.8125 Q1315.6875,778.5 1317.1875,778.5 Q1318.0781,778.5 1318.7031,778.2969 Q1319.0625,778.1875 1319.4688,777.8281 Q1319.7344,777.625 1319.875,777.5625 Q1320.0156,777.5 1320.1875,777.5 Q1320.5156,777.5 1320.7578,777.7578 Q1321,778.0156 1321,778.375 Q1321,778.7188 1320.6563,779.125 Q1320.1563,779.7188 1319.3594,780.0469 Q1318.3125,780.5 1317.0313,780.5 Q1315.5313,780.5 1314.3281,779.9063 Q1313.3594,779.4375 1312.6797,778.4219 Q1312,777.4063 1312,776.2031 L1312,775.1094 Q1312,773.8594 1312.6016,772.7656 Q1313.2031,771.6719 1314.2578,771.0859 Q1315.3125,770.5 1316.5,770.5 Q1317.2188,770.5 1317.8438,770.75 Q1318.4688,771 1319,771.5 Z "/><text fill="#000000" font-family="sans-serif" font-size="12" lengthAdjust="spacingAndGlyphs" textLength="120" x="1331" y="779.9102">Ng1nBenchmarkFilter</text><line style="stroke: #A80036; stroke-width: 1.5;" x1="1303" x2="1453" y1="791" y2="791"/><line style="stroke: #A80036; stroke-width: 1.5;" x1="1303" x2="1453" y1="799" y2="799"/><!--class lib.custom.filters.engines.stagexl_dart.StagexlBenchmarkFilter--><rect fill="#FEFECE" filter="url(#f1rhmu15jinp7t)" height="48" id="lib.custom.filters.engines.stagexl_dart.StagexlBenchmarkFilter" style="stroke: #A80036; stroke-width: 1.5;" width="162" x="1708" y="759"/><ellipse cx="1723" cy="775" fill="#ADD1B2" rx="11" ry="11" style="stroke: #A80036; stroke-width: 1.0;"/><path d="M1725,771.5 Q1725.2031,771 1725.4375,770.75 Q1725.6719,770.5 1725.9375,770.5 Q1726.4063,770.5 1726.7031,770.7813 Q1727,771.0625 1727,771.7188 L1727,773.2813 Q1727,773.9375 1726.7188,774.2188 Q1726.4375,774.5 1726,774.5 Q1725.6094,774.5 1725.3594,774.3281 Q1725.1094,774.1563 1725,773.7031 Q1724.9531,773.3906 1724.7813,773.2188 Q1724.4688,772.8906 1723.9063,772.6953 Q1723.3438,772.5 1722.7813,772.5 Q1722.0781,772.5 1721.4922,772.7813 Q1720.9063,773.0625 1720.4531,773.6875 Q1720,774.3125 1720,775.1719 L1720,776.0938 Q1720,777.125 1720.8438,777.8125 Q1721.6875,778.5 1723.1875,778.5 Q1724.0781,778.5 1724.7031,778.2969 Q1725.0625,778.1875 1725.4688,777.8281 Q1725.7344,777.625 1725.875,777.5625 Q1726.0156,777.5 1726.1875,777.5 Q1726.5156,777.5 1726.7578,777.7578 Q1727,778.0156 1727,778.375 Q1727,778.7188 1726.6563,779.125 Q1726.1563,779.7188 1725.3594,780.0469 Q1724.3125,780.5 1723.0313,780.5 Q1721.5313,780.5 1720.3281,779.9063 Q1719.3594,779.4375 1718.6797,778.4219 Q1718,777.4063 1718,776.2031 L1718,775.1094 Q1718,773.8594 1718.6016,772.7656 Q1719.2031,771.6719 1720.2578,771.0859 Q1721.3125,770.5 1722.5,770.5 Q1723.2188,770.5 1723.8438,770.75 Q1724.4688,771 1725,771.5 Z "/><text fill="#000000" font-family="sans-serif" font-size="12" lengthAdjust="spacingAndGlyphs" textLength="130" x="1737" y="779.9102">StagexlBenchmarkFilter</text><line style="stroke: #A80036; stroke-width: 1.5;" x1="1709" x2="1869" y1="791" y2="791"/><line style="stroke: #A80036; stroke-width: 1.5;" x1="1709" x2="1869" y1="799" y2="799"/><!--class lib.custom.filters.engines.pixi_dart.PixiBenchmarkFilter--><rect fill="#FEFECE" filter="url(#f1rhmu15jinp7t)" height="48" id="lib.custom.filters.engines.pixi_dart.PixiBenchmarkFilter" style="stroke: #A80036; stroke-width: 1.5;" width="141" x="1510.5" y="759"/><ellipse cx="1525.5" cy="775" fill="#ADD1B2" rx="11" ry="11" style="stroke: #A80036; stroke-width: 1.0;"/><path d="M1527.5,771.5 Q1527.7031,771 1527.9375,770.75 Q1528.1719,770.5 1528.4375,770.5 Q1528.9063,770.5 1529.2031,770.7813 Q1529.5,771.0625 1529.5,771.7188 L1529.5,773.2813 Q1529.5,773.9375 1529.2188,774.2188 Q1528.9375,774.5 1528.5,774.5 Q1528.1094,774.5 1527.8594,774.3281 Q1527.6094,774.1563 1527.5,773.7031 Q1527.4531,773.3906 1527.2813,773.2188 Q1526.9688,772.8906 1526.4063,772.6953 Q1525.8438,772.5 1525.2813,772.5 Q1524.5781,772.5 1523.9922,772.7813 Q1523.4063,773.0625 1522.9531,773.6875 Q1522.5,774.3125 1522.5,775.1719 L1522.5,776.0938 Q1522.5,777.125 1523.3438,777.8125 Q1524.1875,778.5 1525.6875,778.5 Q1526.5781,778.5 1527.2031,778.2969 Q1527.5625,778.1875 1527.9688,777.8281 Q1528.2344,777.625 1528.375,777.5625 Q1528.5156,777.5 1528.6875,777.5 Q1529.0156,777.5 1529.2578,777.7578 Q1529.5,778.0156 1529.5,778.375 Q1529.5,778.7188 1529.1563,779.125 Q1528.6563,779.7188 1527.8594,780.0469 Q1526.8125,780.5 1525.5313,780.5 Q1524.0313,780.5 1522.8281,779.9063 Q1521.8594,779.4375 1521.1797,778.4219 Q1520.5,777.4063 1520.5,776.2031 L1520.5,775.1094 Q1520.5,773.8594 1521.1016,772.7656 Q1521.7031,771.6719 1522.7578,771.0859 Q1523.8125,770.5 1525,770.5 Q1525.7188,770.5 1526.3438,770.75 Q1526.9688,771 1527.5,771.5 Z "/><text fill="#000000" font-family="sans-serif" font-size="12" lengthAdjust="spacingAndGlyphs" textLength="109" x="1539.5" y="779.9102">PixiBenchmarkFilter</text><line style="stroke: #A80036; stroke-width: 1.5;" x1="1511.5" x2="1650.5" y1="791" y2="791"/><line style="stroke: #A80036; stroke-width: 1.5;" x1="1511.5" x2="1650.5" y1="799" y2="799"/><!--class lib.custom.filters.interface.common_dart.FilterInterface--><rect fill="#FEFECE" filter="url(#f1rhmu15jinp7t)" height="75.6719" id="lib.custom.filters.interface.common_dart.FilterInterface" style="stroke: #A80036; stroke-width: 1.5;" width="222" x="822" y="745"/><ellipse cx="891.25" cy="761" fill="#A9DCDF" rx="11" ry="11" style="stroke: #A80036; stroke-width: 1.0;"/><path d="M893,762.5 L889.7031,762.5 L889.2656,763.5 L889.2656,763.5 L889.7344,763.5 L890.25,764.125 L890.25,764.5 L890.25,764.875 L889.7344,765.5 L889.2656,765.5 L887.375,765.5 L886.7656,765.5 L886.25,764.875 L886.25,764.5 L886.25,764.125 L886.7656,763.5 L887.375,763.5 L889.6875,757.5 L888.8125,757.5 L887.7656,757.5 L887.25,756.875 L887.25,756.5 L887.25,756.125 L887.7656,755.5 L888.8125,755.5 L892.4844,755.5 L895.1719,763.5 L895.7344,763.5 L895.7344,763.5 L896.25,764.125 L896.25,764.5 L896.25,764.875 L895.7344,765.5 L895.1719,765.5 L893.2813,765.5 L892.7656,765.5 L892.25,764.875 L892.25,764.5 L892.25,764.125 L892.7656,763.5 L893.2813,763.5 L893.2813,763.5 L893,762.5 Z M892.4531,760.5 L891.25,756.9219 L890.2188,760.5 L892.4531,760.5 Z "/><text fill="#000000" font-family="sans-serif" font-size="12" font-style="italic" lengthAdjust="spacingAndGlyphs" textLength="75" x="911.75" y="765.9102">FilterInterface</text><line style="stroke: #A80036; stroke-width: 1.5;" x1="823" x2="1043" y1="777" y2="777"/><line style="stroke: #A80036; stroke-width: 1.5;" x1="823" x2="1043" y1="785" y2="785"/><text fill="#000000" font-family="sans-serif" font-size="11" lengthAdjust="spacingAndGlyphs" textLength="210" x="828" y="800.4189">setBrightness(covariant object, num value);</text><text fill="#000000" font-family="sans-serif" font-size="11" lengthAdjust="spacingAndGlyphs" textLength="177" x="828" y="814.2549">setHue(covariant object, num value);</text><!--class lib.custom.filters.interface.ng1n_dart.Ng1nFilterInterface--><rect fill="#FEFECE" filter="url(#f1rhmu15jinp7t)" height="48" id="lib.custom.filters.interface.ng1n_dart.Ng1nFilterInterface" style="stroke: #A80036; stroke-width: 1.5;" width="136" x="678" y="965"/><ellipse cx="693" cy="981" fill="#ADD1B2" rx="11" ry="11" style="stroke: #A80036; stroke-width: 1.0;"/><path d="M695,977.5 Q695.2031,977 695.4375,976.75 Q695.6719,976.5 695.9375,976.5 Q696.4063,976.5 696.7031,976.7813 Q697,977.0625 697,977.7188 L697,979.2813 Q697,979.9375 696.7188,980.2188 Q696.4375,980.5 696,980.5 Q695.6094,980.5 695.3594,980.3281 Q695.1094,980.1563 695,979.7031 Q694.9531,979.3906 694.7813,979.2188 Q694.4688,978.8906 693.9063,978.6953 Q693.3438,978.5 692.7813,978.5 Q692.0781,978.5 691.4922,978.7813 Q690.9063,979.0625 690.4531,979.6875 Q690,980.3125 690,981.1719 L690,982.0938 Q690,983.125 690.8438,983.8125 Q691.6875,984.5 693.1875,984.5 Q694.0781,984.5 694.7031,984.2969 Q695.0625,984.1875 695.4688,983.8281 Q695.7344,983.625 695.875,983.5625 Q696.0156,983.5 696.1875,983.5 Q696.5156,983.5 696.7578,983.7578 Q697,984.0156 697,984.375 Q697,984.7188 696.6563,985.125 Q696.1563,985.7188 695.3594,986.0469 Q694.3125,986.5 693.0313,986.5 Q691.5313,986.5 690.3281,985.9063 Q689.3594,985.4375 688.6797,984.4219 Q688,983.4063 688,982.2031 L688,981.1094 Q688,979.8594 688.6016,978.7656 Q689.2031,977.6719 690.2578,977.0859 Q691.3125,976.5 692.5,976.5 Q693.2188,976.5 693.8438,976.75 Q694.4688,977 695,977.5 Z "/><text fill="#000000" font-family="sans-serif" font-size="12" lengthAdjust="spacingAndGlyphs" textLength="104" x="707" y="985.9102">Ng1nFilterInterface</text><line style="stroke: #A80036; stroke-width: 1.5;" x1="679" x2="813" y1="997" y2="997"/><line style="stroke: #A80036; stroke-width: 1.5;" x1="679" x2="813" y1="1005" y2="1005"/><!--class lib.custom.filters.interface.stagexl_dart.StagexlFilterInterface--><rect fill="#FEFECE" filter="url(#f1rhmu15jinp7t)" height="48" id="lib.custom.filters.interface.stagexl_dart.StagexlFilterInterface" style="stroke: #A80036; stroke-width: 1.5;" width="146" x="1052" y="965"/><ellipse cx="1067" cy="981" fill="#ADD1B2" rx="11" ry="11" style="stroke: #A80036; stroke-width: 1.0;"/><path d="M1069,977.5 Q1069.2031,977 1069.4375,976.75 Q1069.6719,976.5 1069.9375,976.5 Q1070.4063,976.5 1070.7031,976.7813 Q1071,977.0625 1071,977.7188 L1071,979.2813 Q1071,979.9375 1070.7188,980.2188 Q1070.4375,980.5 1070,980.5 Q1069.6094,980.5 1069.3594,980.3281 Q1069.1094,980.1563 1069,979.7031 Q1068.9531,979.3906 1068.7813,979.2188 Q1068.4688,978.8906 1067.9063,978.6953 Q1067.3438,978.5 1066.7813,978.5 Q1066.0781,978.5 1065.4922,978.7813 Q1064.9063,979.0625 1064.4531,979.6875 Q1064,980.3125 1064,981.1719 L1064,982.0938 Q1064,983.125 1064.8438,983.8125 Q1065.6875,984.5 1067.1875,984.5 Q1068.0781,984.5 1068.7031,984.2969 Q1069.0625,984.1875 1069.4688,983.8281 Q1069.7344,983.625 1069.875,983.5625 Q1070.0156,983.5 1070.1875,983.5 Q1070.5156,983.5 1070.7578,983.7578 Q1071,984.0156 1071,984.375 Q1071,984.7188 1070.6563,985.125 Q1070.1563,985.7188 1069.3594,986.0469 Q1068.3125,986.5 1067.0313,986.5 Q1065.5313,986.5 1064.3281,985.9063 Q1063.3594,985.4375 1062.6797,984.4219 Q1062,983.4063 1062,982.2031 L1062,981.1094 Q1062,979.8594 1062.6016,978.7656 Q1063.2031,977.6719 1064.2578,977.0859 Q1065.3125,976.5 1066.5,976.5 Q1067.2188,976.5 1067.8438,976.75 Q1068.4688,977 1069,977.5 Z "/><text fill="#000000" font-family="sans-serif" font-size="12" lengthAdjust="spacingAndGlyphs" textLength="114" x="1081" y="985.9102">StagexlFilterInterface</text><line style="stroke: #A80036; stroke-width: 1.5;" x1="1053" x2="1197" y1="997" y2="997"/><line style="stroke: #A80036; stroke-width: 1.5;" x1="1053" x2="1197" y1="1005" y2="1005"/><!--class lib.custom.filters.interface.pixi_dart.PixiFilterInterface--><rect fill="#FEFECE" filter="url(#f1rhmu15jinp7t)" height="48" id="lib.custom.filters.interface.pixi_dart.PixiFilterInterface" style="stroke: #A80036; stroke-width: 1.5;" width="125" x="870.5" y="965"/><ellipse cx="885.5" cy="981" fill="#ADD1B2" rx="11" ry="11" style="stroke: #A80036; stroke-width: 1.0;"/><path d="M887.5,977.5 Q887.7031,977 887.9375,976.75 Q888.1719,976.5 888.4375,976.5 Q888.9063,976.5 889.2031,976.7813 Q889.5,977.0625 889.5,977.7188 L889.5,979.2813 Q889.5,979.9375 889.2188,980.2188 Q888.9375,980.5 888.5,980.5 Q888.1094,980.5 887.8594,980.3281 Q887.6094,980.1563 887.5,979.7031 Q887.4531,979.3906 887.2813,979.2188 Q886.9688,978.8906 886.4063,978.6953 Q885.8438,978.5 885.2813,978.5 Q884.5781,978.5 883.9922,978.7813 Q883.4063,979.0625 882.9531,979.6875 Q882.5,980.3125 882.5,981.1719 L882.5,982.0938 Q882.5,983.125 883.3438,983.8125 Q884.1875,984.5 885.6875,984.5 Q886.5781,984.5 887.2031,984.2969 Q887.5625,984.1875 887.9688,983.8281 Q888.2344,983.625 888.375,983.5625 Q888.5156,983.5 888.6875,983.5 Q889.0156,983.5 889.2578,983.7578 Q889.5,984.0156 889.5,984.375 Q889.5,984.7188 889.1563,985.125 Q888.6563,985.7188 887.8594,986.0469 Q886.8125,986.5 885.5313,986.5 Q884.0313,986.5 882.8281,985.9063 Q881.8594,985.4375 881.1797,984.4219 Q880.5,983.4063 880.5,982.2031 L880.5,981.1094 Q880.5,979.8594 881.1016,978.7656 Q881.7031,977.6719 882.7578,977.0859 Q883.8125,976.5 885,976.5 Q885.7188,976.5 886.3438,976.75 Q886.9688,977 887.5,977.5 Z "/><text fill="#000000" font-family="sans-serif" font-size="12" lengthAdjust="spacingAndGlyphs" textLength="93" x="899.5" y="985.9102">PixiFilterInterface</text><line style="stroke: #A80036; stroke-width: 1.5;" x1="871.5" x2="994.5" y1="997" y2="997"/><line style="stroke: #A80036; stroke-width: 1.5;" x1="871.5" x2="994.5" y1="1005" y2="1005"/><!--class lib.interface.common_dart.Interface--><rect fill="#FEFECE" filter="url(#f1rhmu15jinp7t)" height="48" id="lib.interface.common_dart.Interface" style="stroke: #A80036; stroke-width: 1.5;" width="80" x="343" y="441"/><ellipse cx="358" cy="457" fill="#A9DCDF" rx="11" ry="11" style="stroke: #A80036; stroke-width: 1.0;"/><path d="M359.75,458.5 L356.4531,458.5 L356.0156,459.5 L356.0156,459.5 L356.4844,459.5 L357,460.125 L357,460.5 L357,460.875 L356.4844,461.5 L356.0156,461.5 L354.125,461.5 L353.5156,461.5 L353,460.875 L353,460.5 L353,460.125 L353.5156,459.5 L354.125,459.5 L356.4375,453.5 L355.5625,453.5 L354.5156,453.5 L354,452.875 L354,452.5 L354,452.125 L354.5156,451.5 L355.5625,451.5 L359.2344,451.5 L361.9219,459.5 L362.4844,459.5 L362.4844,459.5 L363,460.125 L363,460.5 L363,460.875 L362.4844,461.5 L361.9219,461.5 L360.0313,461.5 L359.5156,461.5 L359,460.875 L359,460.5 L359,460.125 L359.5156,459.5 L360.0313,459.5 L360.0313,459.5 L359.75,458.5 Z M359.2031,456.5 L358,452.9219 L356.9688,456.5 L359.2031,456.5 Z "/><text fill="#000000" font-family="sans-serif" font-size="12" font-style="italic" lengthAdjust="spacingAndGlyphs" textLength="48" x="372" y="461.9102">Interface</text><line style="stroke: #A80036; stroke-width: 1.5;" x1="344" x2="422" y1="473" y2="473"/><line style="stroke: #A80036; stroke-width: 1.5;" x1="344" x2="422" y1="481" y2="481"/><!--class lib.interface.ng1n_dart.Ng1nInterface--><rect fill="#FEFECE" filter="url(#f1rhmu15jinp7t)" height="48" id="lib.interface.ng1n_dart.Ng1nInterface" style="stroke: #A80036; stroke-width: 1.5;" width="109" x="86.5" y="759"/><ellipse cx="101.5" cy="775" fill="#ADD1B2" rx="11" ry="11" style="stroke: #A80036; stroke-width: 1.0;"/><path d="M103.5,771.5 Q103.7031,771 103.9375,770.75 Q104.1719,770.5 104.4375,770.5 Q104.9063,770.5 105.2031,770.7813 Q105.5,771.0625 105.5,771.7188 L105.5,773.2813 Q105.5,773.9375 105.2188,774.2188 Q104.9375,774.5 104.5,774.5 Q104.1094,774.5 103.8594,774.3281 Q103.6094,774.1563 103.5,773.7031 Q103.4531,773.3906 103.2813,773.2188 Q102.9688,772.8906 102.4063,772.6953 Q101.8438,772.5 101.2813,772.5 Q100.5781,772.5 99.9922,772.7813 Q99.4063,773.0625 98.9531,773.6875 Q98.5,774.3125 98.5,775.1719 L98.5,776.0938 Q98.5,777.125 99.3438,777.8125 Q100.1875,778.5 101.6875,778.5 Q102.5781,778.5 103.2031,778.2969 Q103.5625,778.1875 103.9688,777.8281 Q104.2344,777.625 104.375,777.5625 Q104.5156,777.5 104.6875,777.5 Q105.0156,777.5 105.2578,777.7578 Q105.5,778.0156 105.5,778.375 Q105.5,778.7188 105.1563,779.125 Q104.6563,779.7188 103.8594,780.0469 Q102.8125,780.5 101.5313,780.5 Q100.0313,780.5 98.8281,779.9063 Q97.8594,779.4375 97.1797,778.4219 Q96.5,777.4063 96.5,776.2031 L96.5,775.1094 Q96.5,773.8594 97.1016,772.7656 Q97.7031,771.6719 98.7578,771.0859 Q99.8125,770.5 101,770.5 Q101.7188,770.5 102.3438,770.75 Q102.9688,771 103.5,771.5 Z "/><text fill="#000000" font-family="sans-serif" font-size="12" lengthAdjust="spacingAndGlyphs" textLength="77" x="115.5" y="779.9102">Ng1nInterface</text><line style="stroke: #A80036; stroke-width: 1.5;" x1="87.5" x2="194.5" y1="791" y2="791"/><line style="stroke: #A80036; stroke-width: 1.5;" x1="87.5" x2="194.5" y1="799" y2="799"/><!--class lib.interface.pixi_dart.PixiInterface--><rect fill="#FEFECE" filter="url(#f1rhmu15jinp7t)" height="48" id="lib.interface.pixi_dart.PixiInterface" style="stroke: #A80036; stroke-width: 1.5;" width="98" x="252" y="759"/><ellipse cx="267" cy="775" fill="#ADD1B2" rx="11" ry="11" style="stroke: #A80036; stroke-width: 1.0;"/><path d="M269,771.5 Q269.2031,771 269.4375,770.75 Q269.6719,770.5 269.9375,770.5 Q270.4063,770.5 270.7031,770.7813 Q271,771.0625 271,771.7188 L271,773.2813 Q271,773.9375 270.7188,774.2188 Q270.4375,774.5 270,774.5 Q269.6094,774.5 269.3594,774.3281 Q269.1094,774.1563 269,773.7031 Q268.9531,773.3906 268.7813,773.2188 Q268.4688,772.8906 267.9063,772.6953 Q267.3438,772.5 266.7813,772.5 Q266.0781,772.5 265.4922,772.7813 Q264.9063,773.0625 264.4531,773.6875 Q264,774.3125 264,775.1719 L264,776.0938 Q264,777.125 264.8438,777.8125 Q265.6875,778.5 267.1875,778.5 Q268.0781,778.5 268.7031,778.2969 Q269.0625,778.1875 269.4688,777.8281 Q269.7344,777.625 269.875,777.5625 Q270.0156,777.5 270.1875,777.5 Q270.5156,777.5 270.7578,777.7578 Q271,778.0156 271,778.375 Q271,778.7188 270.6563,779.125 Q270.1563,779.7188 269.3594,780.0469 Q268.3125,780.5 267.0313,780.5 Q265.5313,780.5 264.3281,779.9063 Q263.3594,779.4375 262.6797,778.4219 Q262,777.4063 262,776.2031 L262,775.1094 Q262,773.8594 262.6016,772.7656 Q263.2031,771.6719 264.2578,771.0859 Q265.3125,770.5 266.5,770.5 Q267.2188,770.5 267.8438,770.75 Q268.4688,771 269,771.5 Z "/><text fill="#000000" font-family="sans-serif" font-size="12" lengthAdjust="spacingAndGlyphs" textLength="66" x="281" y="779.9102">PixiInterface</text><line style="stroke: #A80036; stroke-width: 1.5;" x1="253" x2="349" y1="791" y2="791"/><line style="stroke: #A80036; stroke-width: 1.5;" x1="253" x2="349" y1="799" y2="799"/><!--class lib.interface.stagexl_dart.StagexlInterface--><rect fill="#FEFECE" filter="url(#f1rhmu15jinp7t)" height="48" id="lib.interface.stagexl_dart.StagexlInterface" style="stroke: #A80036; stroke-width: 1.5;" width="119" x="406.5" y="759"/><ellipse cx="421.5" cy="775" fill="#ADD1B2" rx="11" ry="11" style="stroke: #A80036; stroke-width: 1.0;"/><path d="M423.5,771.5 Q423.7031,771 423.9375,770.75 Q424.1719,770.5 424.4375,770.5 Q424.9063,770.5 425.2031,770.7813 Q425.5,771.0625 425.5,771.7188 L425.5,773.2813 Q425.5,773.9375 425.2188,774.2188 Q424.9375,774.5 424.5,774.5 Q424.1094,774.5 423.8594,774.3281 Q423.6094,774.1563 423.5,773.7031 Q423.4531,773.3906 423.2813,773.2188 Q422.9688,772.8906 422.4063,772.6953 Q421.8438,772.5 421.2813,772.5 Q420.5781,772.5 419.9922,772.7813 Q419.4063,773.0625 418.9531,773.6875 Q418.5,774.3125 418.5,775.1719 L418.5,776.0938 Q418.5,777.125 419.3438,777.8125 Q420.1875,778.5 421.6875,778.5 Q422.5781,778.5 423.2031,778.2969 Q423.5625,778.1875 423.9688,777.8281 Q424.2344,777.625 424.375,777.5625 Q424.5156,777.5 424.6875,777.5 Q425.0156,777.5 425.2578,777.7578 Q425.5,778.0156 425.5,778.375 Q425.5,778.7188 425.1563,779.125 Q424.6563,779.7188 423.8594,780.0469 Q422.8125,780.5 421.5313,780.5 Q420.0313,780.5 418.8281,779.9063 Q417.8594,779.4375 417.1797,778.4219 Q416.5,777.4063 416.5,776.2031 L416.5,775.1094 Q416.5,773.8594 417.1016,772.7656 Q417.7031,771.6719 418.7578,771.0859 Q419.8125,770.5 421,770.5 Q421.7188,770.5 422.3438,770.75 Q422.9688,771 423.5,771.5 Z "/><text fill="#000000" font-family="sans-serif" font-size="12" lengthAdjust="spacingAndGlyphs" textLength="87" x="435.5" y="779.9102">StagexlInterface</text><line style="stroke: #A80036; stroke-width: 1.5;" x1="407.5" x2="524.5" y1="791" y2="791"/><line style="stroke: #A80036; stroke-width: 1.5;" x1="407.5" x2="524.5" y1="799" y2="799"/><!--class lib.runs.filters_dart.FilterBrightnessBenchmark--><rect fill="#FEFECE" filter="url(#f1rhmu15jinp7t)" height="48" id="lib.runs.filters_dart.FilterBrightnessBenchmark" style="stroke: #A80036; stroke-width: 1.5;" width="182" x="2358" y="965"/><ellipse cx="2373" cy="981" fill="#ADD1B2" rx="11" ry="11" style="stroke: #A80036; stroke-width: 1.0;"/><path d="M2375,977.5 Q2375.2031,977 2375.4375,976.75 Q2375.6719,976.5 2375.9375,976.5 Q2376.4063,976.5 2376.7031,976.7813 Q2377,977.0625 2377,977.7188 L2377,979.2813 Q2377,979.9375 2376.7188,980.2188 Q2376.4375,980.5 2376,980.5 Q2375.6094,980.5 2375.3594,980.3281 Q2375.1094,980.1563 2375,979.7031 Q2374.9531,979.3906 2374.7813,979.2188 Q2374.4688,978.8906 2373.9063,978.6953 Q2373.3438,978.5 2372.7813,978.5 Q2372.0781,978.5 2371.4922,978.7813 Q2370.9063,979.0625 2370.4531,979.6875 Q2370,980.3125 2370,981.1719 L2370,982.0938 Q2370,983.125 2370.8438,983.8125 Q2371.6875,984.5 2373.1875,984.5 Q2374.0781,984.5 2374.7031,984.2969 Q2375.0625,984.1875 2375.4688,983.8281 Q2375.7344,983.625 2375.875,983.5625 Q2376.0156,983.5 2376.1875,983.5 Q2376.5156,983.5 2376.7578,983.7578 Q2377,984.0156 2377,984.375 Q2377,984.7188 2376.6563,985.125 Q2376.1563,985.7188 2375.3594,986.0469 Q2374.3125,986.5 2373.0313,986.5 Q2371.5313,986.5 2370.3281,985.9063 Q2369.3594,985.4375 2368.6797,984.4219 Q2368,983.4063 2368,982.2031 L2368,981.1094 Q2368,979.8594 2368.6016,978.7656 Q2369.2031,977.6719 2370.2578,977.0859 Q2371.3125,976.5 2372.5,976.5 Q2373.2188,976.5 2373.8438,976.75 Q2374.4688,977 2375,977.5 Z "/><text fill="#000000" font-family="sans-serif" font-size="12" lengthAdjust="spacingAndGlyphs" textLength="150" x="2387" y="985.9102">FilterBrightnessBenchmark</text><line style="stroke: #A80036; stroke-width: 1.5;" x1="2359" x2="2539" y1="997" y2="997"/><line style="stroke: #A80036; stroke-width: 1.5;" x1="2359" x2="2539" y1="1005" y2="1005"/><!--class web.run.filter_dart.filter_dart--><rect fill="#FEFECE" filter="url(#f1rhmu15jinp7t)" height="75.6719" id="web.run.filter_dart.filter_dart" style="stroke: #A80036; stroke-width: 1.5;" width="443" x="2727.5" y="196.5"/><ellipse cx="2919.25" cy="212.5" fill="#ADD1B2" rx="11" ry="11" style="stroke: #A80036; stroke-width: 1.0;"/><path d="M2921.25,209 Q2921.4531,208.5 2921.6875,208.25 Q2921.9219,208 2922.1875,208 Q2922.6563,208 2922.9531,208.2813 Q2923.25,208.5625 2923.25,209.2188 L2923.25,210.7813 Q2923.25,211.4375 2922.9688,211.7188 Q2922.6875,212 2922.25,212 Q2921.8594,212 2921.6094,211.8281 Q2921.3594,211.6563 2921.25,211.2031 Q2921.2031,210.8906 2921.0313,210.7188 Q2920.7188,210.3906 2920.1563,210.1953 Q2919.5938,210 2919.0313,210 Q2918.3281,210 2917.7422,210.2813 Q2917.1563,210.5625 2916.7031,211.1875 Q2916.25,211.8125 2916.25,212.6719 L2916.25,213.5938 Q2916.25,214.625 2917.0938,215.3125 Q2917.9375,216 2919.4375,216 Q2920.3281,216 2920.9531,215.7969 Q2921.3125,215.6875 2921.7188,215.3281 Q2921.9844,215.125 2922.125,215.0625 Q2922.2656,215 2922.4375,215 Q2922.7656,215 2923.0078,215.2578 Q2923.25,215.5156 2923.25,215.875 Q2923.25,216.2188 2922.9063,216.625 Q2922.4063,217.2188 2921.6094,217.5469 Q2920.5625,218 2919.2813,218 Q2917.7813,218 2916.5781,217.4063 Q2915.6094,216.9375 2914.9297,215.9219 Q2914.25,214.9063 2914.25,213.7031 L2914.25,212.6094 Q2914.25,211.3594 2914.8516,210.2656 Q2915.4531,209.1719 2916.5078,208.5859 Q2917.5625,208 2918.75,208 Q2919.4688,208 2920.0938,208.25 Q2920.7188,208.5 2921.25,209 Z "/><text fill="#000000" font-family="sans-serif" font-size="12" lengthAdjust="spacingAndGlyphs" textLength="51" x="2939.75" y="217.4102">filter_dart</text><line style="stroke: #A80036; stroke-width: 1.5;" x1="2728.5" x2="3169.5" y1="228.5" y2="228.5"/><line style="stroke: #A80036; stroke-width: 1.5;" x1="2728.5" x2="3169.5" y1="236.5" y2="236.5"/><text fill="#000000" font-family="sans-serif" font-size="11" lengthAdjust="spacingAndGlyphs" textLength="30" x="2733.5" y="251.9189">main()</text><text fill="#000000" font-family="sans-serif" font-size="11" lengthAdjust="spacingAndGlyphs" textLength="431" x="2733.5" y="265.7549">GraphicEngineBenchmark _getEngine(Map&lt;String, String&gt; parameters, Element container)</text><polygon fill="#FFCC00" filter="url(#f1rhmu15jinp7t)" points="2668.5,437.5,2745.5,437.5,2752.5,461.1094,2759.5,461.1094,2759.5,492.7188,2668.5,492.7188,2668.5,437.5" style="stroke: #000000; stroke-width: 1.5;"/><line style="stroke: #000000; stroke-width: 1.5;" x1="2668.5" x2="2752.5" y1="461.1094" y2="461.1094"/><text fill="#000000" font-family="sans-serif" font-size="14" font-weight="bold" lengthAdjust="spacingAndGlyphs" textLength="71" x="2672.5" y="454.0332">filter_html</text><!--link web.run.filter_dart to web.run.filter_html--><path d="M2697.9239,297.0193 C2697.9529,297.32 2697.9819,297.6213 2698.011,297.9233 C2698.4762,302.7547 2698.9566,307.743 2699.4475,312.8411 C2703.375,353.6263 2707.98,401.442 2710.94,432.2 " fill="none" id="web.run.filter_dart-web.run.filter_html" style="stroke: #A80036; stroke-width: 1.0;"/><polygon fill="#A80036" points="2711.42,437.222,2714.5392,427.8801,2710.9409,432.245,2706.576,428.6467,2711.42,437.222" style="stroke: #A80036; stroke-width: 1.0;"/><!--link lib.benchmarks.common_dart.BenchmarkManager to lib.custom.filters.engines.common_dart.BenchmarkFilterManager--><path d="M1866.31,276.422 C1878.13,298.762 1892.53,327.079 1904,353 C1966.82,494.967 2027.93,669.568 2053.49,744.717 " fill="none" id="lib.benchmarks.common_dart.BenchmarkManager-lib.custom.filters.engines.common_dart.BenchmarkFilterManager" style="stroke: #A80036; stroke-width: 1.0;"/><polygon fill="none" points="1860,279.474,1856.73,258.539,1872.34,272.862,1860,279.474" style="stroke: #A80036; stroke-width: 1.0;"/><!--link lib.custom.filters.engines.common_dart.BenchmarkFilterManager to lib.runs.filters_dart.FilterBrightnessBenchmark--><path d="M2135.8,821.18 C2212.6,862.087 2334,926.746 2400.86,962.359 " fill="none" id="lib.custom.filters.engines.common_dart.BenchmarkFilterManager-lib.runs.filters_dart.FilterBrightnessBenchmark" style="stroke: #A80036; stroke-width: 1.0;"/><polygon fill="#A80036" points="2405.58,964.872,2399.5261,957.1034,2401.1697,962.5162,2395.7569,964.1598,2405.58,964.872" style="stroke: #A80036; stroke-width: 1.0;"/><!--link lib.benchmarks.common_dart.BenchmarkBase to lib.runs.filters_dart.FilterBrightnessBenchmark--><path d="M2039.22,275.501 C2079.66,337.596 2159.14,461.262 2222,569 C2308.51,717.278 2403.92,900.461 2436.96,964.548 " fill="none" id="lib.benchmarks.common_dart.BenchmarkBase-lib.runs.filters_dart.FilterBrightnessBenchmark" style="stroke: #A80036; stroke-width: 1.0;"/><polygon fill="none" points="2033.28,279.214,2028.21,258.64,2045.01,271.561,2033.28,279.214" style="stroke: #A80036; stroke-width: 1.0;"/><!--link lib.interface.common_dart.Interface to lib.interface.pixi_dart.PixiInterface--><path d="M371.874,508.875 C354.306,576.578 320.73,705.966 307.038,758.73 " fill="none" id="lib.interface.common_dart.Interface-lib.interface.pixi_dart.PixiInterface" style="stroke: #A80036; stroke-width: 1.0;"/><polygon fill="none" points="365.171,506.837,376.97,489.236,378.722,510.353,365.171,506.837" style="stroke: #A80036; stroke-width: 1.0;"/><!--link lib.interface.pixi_dart.PixiInterface to lib.custom.filters.interface.pixi_dart.PixiFilterInterface--><path d="M330.113,822.81 C345.717,840.384 366.551,859.353 390,869 C435.22,887.603 785.362,857.041 830,877 C870.559,895.136 902.456,937.701 919.451,964.538 " fill="none" id="lib.interface.pixi_dart.PixiInterface-lib.custom.filters.interface.pixi_dart.PixiFilterInterface" style="stroke: #A80036; stroke-width: 1.0;"/><polygon fill="none" points="324.691,827.237,317.327,807.368,335.474,818.309,324.691,827.237" style="stroke: #A80036; stroke-width: 1.0;"/><!--link lib.custom.filters.interface.common_dart.FilterInterface to lib.custom.filters.interface.pixi_dart.PixiFilterInterface--><path d="M933,841.508 C933,882.342 933,935.009 933,964.785 " fill="none" id="lib.custom.filters.interface.common_dart.FilterInterface-lib.custom.filters.interface.pixi_dart.PixiFilterInterface" style="stroke: #A80036; stroke-width: 1.0; stroke-dasharray: 7.0,7.0;"/><polygon fill="none" points="926,841.417,933,821.417,940,841.417,926,841.417" style="stroke: #A80036; stroke-width: 1.0;"/><!--link lib.benchmarks.pixi.common_dart.PixiBenchmark to lib.custom.filters.engines.pixi_dart.PixiBenchmarkFilter--><path d="M1589.63,509.315 C1587.48,577.138 1583.4,706.08 1581.74,758.73 " fill="none" id="lib.benchmarks.pixi.common_dart.PixiBenchmark-lib.custom.filters.engines.pixi_dart.PixiBenchmarkFilter" style="stroke: #A80036; stroke-width: 1.0;"/><polygon fill="none" points="1582.64,509.005,1590.26,489.236,1596.63,509.448,1582.64,509.005" style="stroke: #A80036; stroke-width: 1.0;"/><!--link lib.benchmarks.common_dart.GraphicEngineBenchmark to lib.benchmarks.pixi.common_dart.PixiBenchmark--><path d="M1622.26,340.845 C1612.79,378.165 1602.99,416.761 1596.95,440.572 " fill="none" id="lib.benchmarks.common_dart.GraphicEngineBenchmark-lib.benchmarks.pixi.common_dart.PixiBenchmark" style="stroke: #A80036; stroke-width: 1.0; stroke-dasharray: 7.0,7.0;"/><polygon fill="none" points="1615.53,338.898,1627.24,321.235,1629.1,342.343,1615.53,338.898" style="stroke: #A80036; stroke-width: 1.0;"/><!--link lib.custom.filters.engines.pixi_dart.PixiBenchmarkFilter to lib.custom.filters.interface.pixi_dart.PixiFilterInterface--><path d="M1550.35,816.181 C1529.71,835.47 1500.72,858.272 1470,869 C1424.47,884.901 1080.03,857.307 1036,877 C995.443,895.141 963.546,937.704 946.55,964.539 " fill="none" id="lib.custom.filters.engines.pixi_dart.PixiBenchmarkFilter-lib.custom.filters.interface.pixi_dart.PixiFilterInterface" style="stroke: #A80036; stroke-width: 1.0;"/><polygon fill="#A80036" points="1559.78,807.063,1552.6864,808.3595,1551.1549,815.4061,1558.2485,814.1096,1559.78,807.063" style="stroke: #A80036; stroke-width: 1.0;"/><!--link lib.interface.common_dart.Interface to lib.interface.stagexl_dart.StagexlInterface--><path d="M394.261,508.875 C412.044,576.578 446.029,705.966 459.888,758.73 " fill="none" id="lib.interface.common_dart.Interface-lib.interface.stagexl_dart.StagexlInterface" style="stroke: #A80036; stroke-width: 1.0;"/><polygon fill="none" points="387.414,510.358,389.103,489.236,400.954,506.802,387.414,510.358" style="stroke: #A80036; stroke-width: 1.0;"/><!--link lib.interface.stagexl_dart.StagexlInterface to lib.custom.filters.interface.stagexl_dart.StagexlFilterInterface--><path d="M544.963,808.668 C613.291,828.82 715.134,856.019 806,869 C828.676,872.239 990.971,867.919 1012,877 C1054.67,895.425 1090.25,937.897 1109.5,964.638 " fill="none" id="lib.interface.stagexl_dart.StagexlInterface-lib.custom.filters.interface.stagexl_dart.StagexlFilterInterface" style="stroke: #A80036; stroke-width: 1.0;"/><polygon fill="none" points="542.91,815.36,525.751,802.926,546.918,801.946,542.91,815.36" style="stroke: #A80036; stroke-width: 1.0;"/><!--link lib.custom.filters.interface.common_dart.FilterInterface to lib.custom.filters.interface.stagexl_dart.StagexlFilterInterface--><path d="M982.167,836.24 C1021.2,877.709 1073.91,933.712 1103.15,964.785 " fill="none" id="lib.custom.filters.interface.common_dart.FilterInterface-lib.custom.filters.interface.stagexl_dart.StagexlFilterInterface" style="stroke: #A80036; stroke-width: 1.0; stroke-dasharray: 7.0,7.0;"/><polygon fill="none" points="976.826,840.778,968.216,821.417,987.02,831.183,976.826,840.778" style="stroke: #A80036; stroke-width: 1.0;"/><!--link lib.benchmarks.stagexl.common_dart.StagexlBenchmark to lib.custom.filters.engines.stagexl_dart.StagexlBenchmarkFilter--><path d="M1815.75,509.315 C1809.1,577.138 1796.45,706.08 1791.28,758.73 " fill="none" id="lib.benchmarks.stagexl.common_dart.StagexlBenchmark-lib.custom.filters.engines.stagexl_dart.StagexlBenchmarkFilter" style="stroke: #A80036; stroke-width: 1.0;"/><polygon fill="none" points="1808.8,508.457,1817.72,489.236,1822.73,509.824,1808.8,508.457" style="stroke: #A80036; stroke-width: 1.0;"/><!--link lib.benchmarks.common_dart.GraphicEngineBenchmark to lib.benchmarks.stagexl.common_dart.StagexlBenchmark--><path d="M1725.33,337.502 C1754.03,375.845 1784.12,416.049 1802.47,440.572 " fill="none" id="lib.benchmarks.common_dart.GraphicEngineBenchmark-lib.benchmarks.stagexl.common_dart.StagexlBenchmark" style="stroke: #A80036; stroke-width: 1.0; stroke-dasharray: 7.0,7.0;"/><polygon fill="none" points="1719.54,341.442,1713.16,321.235,1730.75,333.054,1719.54,341.442" style="stroke: #A80036; stroke-width: 1.0;"/><!--link lib.custom.filters.engines.stagexl_dart.StagexlBenchmarkFilter to lib.custom.filters.interface.stagexl_dart.StagexlFilterInterface--><path d="M1752.31,815.597 C1729.45,833.744 1698.64,855.536 1668,869 C1508.97,938.891 1305.12,969.33 1198.11,981.243 " fill="none" id="lib.custom.filters.engines.stagexl_dart.StagexlBenchmarkFilter-lib.custom.filters.interface.stagexl_dart.StagexlFilterInterface" style="stroke: #A80036; stroke-width: 1.0;"/><polygon fill="#A80036" points="1762.54,807.297,1755.3603,807.9688,1753.2189,814.8546,1760.3987,814.1828,1762.54,807.297" style="stroke: #A80036; stroke-width: 1.0;"/><!--link lib.interface.common_dart.Interface to lib.interface.ng1n_dart.Ng1nInterface--><path d="M325.224,496.4 C295.495,514.337 260.463,539.334 236,569 C186.927,628.511 158.282,717.4 146.837,758.991 " fill="none" id="lib.interface.common_dart.Interface-lib.interface.ng1n_dart.Ng1nInterface" style="stroke: #A80036; stroke-width: 1.0;"/><polygon fill="none" points="322.091,490.125,342.907,486.165,329.104,502.242,322.091,490.125" style="stroke: #A80036; stroke-width: 1.0;"/><!--link lib.interface.ng1n_dart.Ng1nInterface to lib.custom.filters.interface.ng1n_dart.Ng1nFilterInterface--><path d="M174.562,821.669 C191.443,838.472 213.15,857.117 236,869 C382.002,944.929 576.493,972.977 677.922,982.894 " fill="none" id="lib.interface.ng1n_dart.Ng1nInterface-lib.custom.filters.interface.ng1n_dart.Ng1nFilterInterface" style="stroke: #A80036; stroke-width: 1.0;"/><polygon fill="none" points="169.295,826.29,160.521,807.002,179.408,816.609,169.295,826.29" style="stroke: #A80036; stroke-width: 1.0;"/><!--link lib.custom.filters.interface.common_dart.FilterInterface to lib.custom.filters.interface.ng1n_dart.Ng1nFilterInterface--><path d="M885.113,836.24 C847.1,877.709 795.764,933.712 767.281,964.785 " fill="none" id="lib.custom.filters.interface.common_dart.FilterInterface-lib.custom.filters.interface.ng1n_dart.Ng1nFilterInterface" style="stroke: #A80036; stroke-width: 1.0; stroke-dasharray: 7.0,7.0;"/><polygon fill="none" points="880.027,831.43,898.701,821.417,890.347,840.89,880.027,831.43" style="stroke: #A80036; stroke-width: 1.0;"/><!--link lib.benchmarks.ng1n.common_dart.Ng1nBenchmark to lib.custom.filters.engines.ng1n_dart.Ng1nBenchmarkFilter--><path d="M1368.51,509.315 C1370.87,577.138 1375.36,706.08 1377.19,758.73 " fill="none" id="lib.benchmarks.ng1n.common_dart.Ng1nBenchmark-lib.custom.filters.engines.ng1n_dart.Ng1nBenchmarkFilter" style="stroke: #A80036; stroke-width: 1.0;"/><polygon fill="none" points="1361.51,509.468,1367.81,489.236,1375.5,508.981,1361.51,509.468" style="stroke: #A80036; stroke-width: 1.0;"/><!--link lib.benchmarks.common_dart.GraphicEngineBenchmark to lib.benchmarks.ng1n.common_dart.Ng1nBenchmark--><path d="M1557.64,334.203 C1552.51,338.059 1547.29,341.687 1542,345 C1532.47,350.966 1527.98,347.83 1518,353 C1470.62,377.537 1421.97,416.191 1393.13,440.804 " fill="none" id="lib.benchmarks.common_dart.GraphicEngineBenchmark-lib.benchmarks.ng1n.common_dart.Ng1nBenchmark" style="stroke: #A80036; stroke-width: 1.0; stroke-dasharray: 7.0,7.0;"/><polygon fill="none" points="1553.67,328.406,1573.6,321.216,1562.5,339.267,1553.67,328.406" style="stroke: #A80036; stroke-width: 1.0;"/><!--link lib.custom.filters.engines.ng1n_dart.Ng1nBenchmarkFilter to lib.custom.filters.interface.ng1n_dart.Ng1nFilterInterface--><path d="M1296.71,811.095 C1233.08,830.989 1141.94,856.616 1060,869 C1037.35,872.423 874.925,867.682 854,877 C812.49,895.485 778.719,937.939 760.56,964.659 " fill="none" id="lib.custom.filters.engines.ng1n_dart.Ng1nBenchmarkFilter-lib.custom.filters.interface.ng1n_dart.Ng1nFilterInterface" style="stroke: #A80036; stroke-width: 1.0;"/><polygon fill="#A80036" points="1309.46,807.071,1302.5341,805.0632,1298.0168,810.6841,1304.9428,812.6919,1309.46,807.071" style="stroke: #A80036; stroke-width: 1.0;"/><!--link lib.benchmarks.common_dart.GraphicEngineBenchmark to lib.interface.common_dart.Interface--><path d="M1568.93,329.314 C1560.42,335.477 1551.41,340.863 1542,345 C1516.15,356.364 1316.15,350.835 1288,353 C952.218,378.827 549.503,438.389 423.013,457.777 " fill="none" id="lib.benchmarks.common_dart.GraphicEngineBenchmark-lib.interface.common_dart.Interface" style="stroke: #A80036; stroke-width: 1.0;"/><polygon fill="#A80036" points="1579.44,321.128,1572.2484,321.6577,1569.9713,328.4999,1577.1629,327.9702,1579.44,321.128" style="stroke: #A80036; stroke-width: 1.0;"/><!--
@startuml

namespace lib{
    namespace benchmarks{
        namespace common_dart{
            class BenchmarkManager
            class GraphicEngineBenchmark{
                int get canvasWidth;
                int get canvasHeight;
                Interface get interface;
                CanvasElement get canvas;
                Element get container;
                BenchmarkManager get manager;
                initialize();
                release();
                frameRendering(num v);
            }
            class BenchmarkBase
            class BenchmarkRunner
            class BenchmarkResult
        }
        namespace ng1n{
            namespace common_dart{
                class Ng1nBenchmark{
                }
            }
        }
        namespace pixi{
            namespace common_dart{
                class PixiBenchmark{
                }
            }
        }
        namespace stagexl{
            namespace common_dart{
                class StagexlBenchmark{
                }
            }
        }
    }
    namespace custom{
        namespace filters #ffcc00{
            namespace engines{
                namespace common_dart{
                    class BenchmarkFilterManager{
                        Future<Map> runFilterBrightnessBenchmark(int objects)
                        Future<Map> runFilterHueBenchmark(int objects)
                    }
                }
                namespace ng1n_dart{
                    class Ng1nBenchmarkFilter{
                    }
                }
                namespace stagexl_dart{
                    class StagexlBenchmarkFilter{
                    }
                }
                namespace pixi_dart{
                    class PixiBenchmarkFilter{
                    }
                }
            }
            namespace interface{
                namespace common_dart{
                    abstract class FilterInterface{
                      setBrightness(covariant object, num value);
                      setHue(covariant object, num value);
                    }
                }
                namespace ng1n_dart{
                    class Ng1nFilterInterface{
                    }
                }
                namespace stagexl_dart{
                    class StagexlFilterInterface{
                    }
                }
                namespace pixi_dart{
                    class PixiFilterInterface{
                    }
                }
            }
        }
    }
    namespace interface{
        namespace common_dart{
            abstract class Interface{
            }
        }
        namespace ng1n_dart{
            class Ng1nInterface{
            }
        }
        namespace pixi_dart{
            class PixiInterface{
            }
        }
        namespace stagexl_dart{
            class StagexlInterface{
            }
        }
    }

    namespace runs{
        namespace filters_dart #ffcc00{
            class FilterBrightnessBenchmark{
            }
        }
    }
}


namespace web{
    namespace run{
        namespace filter_dart #ffcc00{
            class filter_dart{
                main()
                GraphicEngineBenchmark _getEngine(Map<String, String> parameters, Element container)
            }
        }
        namespace filter_html #ffcc00{
        }
    }
}

web.run.filter_dart - -> web.run.filter_html

lib.benchmarks.common_dart.BenchmarkManager <|- - lib.custom.filters.engines.common_dart.BenchmarkFilterManager
lib.custom.filters.engines.common_dart.BenchmarkFilterManager - -> lib.runs.filters_dart.FilterBrightnessBenchmark


lib.benchmarks.common_dart.BenchmarkBase <|- - lib.runs.filters_dart.FilterBrightnessBenchmark

lib.interface.common_dart.Interface <|- - lib.interface.pixi_dart.PixiInterface
lib.interface.pixi_dart.PixiInterface  <|- - lib.custom.filters.interface.pixi_dart.PixiFilterInterface
lib.custom.filters.interface.common_dart.FilterInterface  <|.. lib.custom.filters.interface.pixi_dart.PixiFilterInterface
lib.benchmarks.pixi.common_dart.PixiBenchmark <|- - lib.custom.filters.engines.pixi_dart.PixiBenchmarkFilter
lib.benchmarks.common_dart.GraphicEngineBenchmark <|.. lib.benchmarks.pixi.common_dart.PixiBenchmark
lib.custom.filters.engines.pixi_dart.PixiBenchmarkFilter *- - lib.custom.filters.interface.pixi_dart.PixiFilterInterface


lib.interface.common_dart.Interface <|- - lib.interface.stagexl_dart.StagexlInterface
lib.interface.stagexl_dart.StagexlInterface  <|- - lib.custom.filters.interface.stagexl_dart.StagexlFilterInterface
lib.custom.filters.interface.common_dart.FilterInterface  <|.. lib.custom.filters.interface.stagexl_dart.StagexlFilterInterface
lib.benchmarks.stagexl.common_dart.StagexlBenchmark <|- - lib.custom.filters.engines.stagexl_dart.StagexlBenchmarkFilter
lib.benchmarks.common_dart.GraphicEngineBenchmark <|.. lib.benchmarks.stagexl.common_dart.StagexlBenchmark
lib.custom.filters.engines.stagexl_dart.StagexlBenchmarkFilter *- - lib.custom.filters.interface.stagexl_dart.StagexlFilterInterface


lib.interface.common_dart.Interface <|- - lib.interface.ng1n_dart.Ng1nInterface
lib.interface.ng1n_dart.Ng1nInterface  <|- - lib.custom.filters.interface.ng1n_dart.Ng1nFilterInterface
lib.custom.filters.interface.common_dart.FilterInterface  <|.. lib.custom.filters.interface.ng1n_dart.Ng1nFilterInterface
lib.benchmarks.ng1n.common_dart.Ng1nBenchmark <|- - lib.custom.filters.engines.ng1n_dart.Ng1nBenchmarkFilter
lib.benchmarks.common_dart.GraphicEngineBenchmark <|.. lib.benchmarks.ng1n.common_dart.Ng1nBenchmark
lib.custom.filters.engines.ng1n_dart.Ng1nBenchmarkFilter *- - lib.custom.filters.interface.ng1n_dart.Ng1nFilterInterface




lib.benchmarks.common_dart.GraphicEngineBenchmark *- - lib.interface.common_dart.Interface

@enduml

PlantUML version 1.2018.01(Sun Jan 28 19:08:22 CET 2018)
(GPL source distribution)
Java Runtime: OpenJDK Runtime Environment
JVM: OpenJDK 64-Bit Server VM
Java Version: 1.8.0_152-release-915-b11
Operating System: Windows 10
OS Version: 10.0
Default Encoding: Cp1252
Language: en
Country: US
--></g></svg>